<svg xmlns="http://www.w3.org/2000/svg" xmlns:xlink="http://www.w3.org/1999/xlink" width="40" zoomAndPan="magnify" viewBox="0 0 192 191.999996" height="40" preserveAspectRatio="xMidYMid meet" version="1.0"><defs><clipPath id="1ffad290a2"><path d="M 10.476562 41.15625 L 181.476562 41.15625 L 181.476562 150.65625 L 10.476562 150.65625 Z M 10.476562 41.15625 " clip-rule="nonzero"/></clipPath><clipPath id="a02eb2a907"><path d="M 114.585938 3.183594 L 187.335938 3.183594 L 187.335938 108.183594 L 114.585938 108.183594 Z M 114.585938 3.183594 " clip-rule="nonzero"/></clipPath></defs><g clip-path="url(#1ffad290a2)"><path fill="#000000" d="M 173.644531 56.804688 L 173.644531 48.980469 L 165.867188 48.980469 L 165.867188 41.15625 L 103.734375 41.15625 L 103.734375 48.980469 L 88.179688 48.980469 L 88.179688 41.15625 L 26.066406 41.15625 L 26.066406 48.980469 L 18.289062 48.980469 L 18.289062 56.804688 L 10.515625 56.804688 L 10.515625 135.007812 L 18.289062 135.007812 L 18.289062 142.832031 L 80.445312 142.832031 L 80.445312 150.65625 C 90.804688 150.65625 101.148438 150.65625 111.511719 150.65625 L 111.511719 142.832031 L 173.664062 142.832031 L 173.664062 135.007812 L 181.4375 135.007812 L 181.4375 56.804688 Z M 173.644531 56.804688 " fill-opacity="1" fill-rule="evenodd"/></g><path fill="#ded2a0" d="M 173.644531 127.183594 L 173.644531 56.804688 L 165.867188 56.804688 L 165.867188 48.980469 L 103.734375 48.980469 L 103.734375 56.804688 L 88.199219 56.804688 L 88.199219 48.980469 L 26.066406 48.980469 L 26.066406 56.804688 L 18.289062 56.804688 L 18.289062 135.007812 L 80.425781 135.007812 L 80.425781 142.832031 C 90.785156 142.832031 101.128906 142.832031 111.492188 142.832031 L 111.492188 135.007812 L 173.625 135.007812 L 173.625 127.183594 Z M 173.644531 127.183594 " fill-opacity="1" fill-rule="evenodd"/><path fill="#b9b085" d="M 103.734375 135.007812 L 111.511719 135.007812 L 111.511719 127.183594 L 173.644531 127.183594 L 173.644531 56.804688 L 165.886719 56.804688 L 165.886719 119.359375 L 103.734375 119.359375 L 103.734375 127.183594 L 95.976562 127.183594 L 95.976562 135.007812 Z M 103.734375 135.007812 " fill-opacity="1" fill-rule="evenodd"/><path fill="#996633" d="M 72.667969 135.007812 L 80.445312 135.007812 L 80.445312 142.832031 C 90.804688 142.832031 101.148438 142.832031 111.511719 142.832031 L 111.511719 135.007812 L 173.644531 135.007812 L 173.644531 127.183594 C 152.9375 127.183594 132.214844 127.183594 111.511719 127.183594 L 111.511719 135.007812 L 80.445312 135.007812 L 80.445312 127.183594 L 18.308594 127.183594 L 18.308594 135.007812 Z M 72.667969 135.007812 " fill-opacity="1" fill-rule="evenodd"/><path fill="#ded2a0" d="M 95.976562 127.183594 L 103.734375 127.183594 L 103.734375 119.359375 L 165.886719 119.359375 L 165.886719 48.980469 L 103.734375 48.980469 L 103.734375 56.804688 L 95.976562 56.804688 Z M 95.976562 127.183594 " fill-opacity="1" fill-rule="evenodd"/><path fill="#f4e8b3" d="M 88.199219 127.183594 L 95.976562 127.183594 L 95.976562 56.804688 L 88.199219 56.804688 L 88.199219 48.980469 L 26.066406 48.980469 L 26.066406 119.359375 C 46.773438 119.359375 67.496094 119.359375 88.199219 119.359375 Z M 88.199219 127.183594 " fill-opacity="1" fill-rule="evenodd"/><path fill="#ded2a0" d="M 26.066406 127.183594 L 80.445312 127.183594 L 80.445312 135.007812 L 95.976562 135.007812 L 95.976562 127.183594 L 88.199219 127.183594 L 88.199219 119.359375 L 26.066406 119.359375 L 26.066406 56.804688 L 18.308594 56.804688 L 18.308594 127.183594 Z M 26.066406 127.183594 " fill-opacity="1" fill-rule="evenodd"/><path fill="#808080" d="M 33.84375 64.609375 L 80.445312 64.609375 L 80.445312 56.785156 C 64.910156 56.785156 49.378906 56.785156 33.84375 56.785156 Z M 150.351562 111.535156 L 158.109375 111.535156 L 158.109375 103.710938 C 142.578125 103.710938 127.042969 103.710938 111.511719 103.710938 L 111.511719 111.535156 Z M 72.667969 111.535156 L 80.445312 111.535156 L 80.445312 103.710938 C 64.910156 103.710938 49.378906 103.710938 33.84375 103.710938 L 33.84375 111.535156 Z M 150.351562 95.90625 L 158.109375 95.90625 L 158.109375 88.082031 L 111.511719 88.082031 L 111.511719 95.90625 Z M 72.667969 95.90625 L 80.445312 95.90625 L 80.445312 88.082031 C 64.910156 88.082031 49.378906 88.082031 33.84375 88.082031 L 33.84375 95.90625 Z M 150.351562 80.257812 L 158.109375 80.257812 L 158.109375 72.433594 L 111.511719 72.433594 L 111.511719 80.257812 Z M 72.667969 80.257812 L 80.445312 80.257812 L 80.445312 72.433594 C 64.910156 72.433594 49.378906 72.433594 33.84375 72.433594 L 33.84375 80.257812 Z M 150.351562 64.609375 L 158.109375 64.609375 L 158.109375 56.785156 L 111.511719 56.785156 L 111.511719 64.609375 Z M 150.351562 64.609375 " fill-opacity="1" fill-rule="evenodd"/><g clip-path="url(#a02eb2a907)"><path fill="#000000" d="M 179.246094 19.335938 L 171.164062 19.335938 L 171.164062 11.257812 L 163.082031 11.257812 L 163.082031 3.183594 L 130.757812 3.183594 L 130.757812 11.257812 L 122.679688 11.257812 L 122.679688 19.335938 L 114.597656 19.335938 L 114.597656 35.492188 L 122.679688 35.492188 L 122.679688 43.566406 L 130.757812 43.566406 L 130.757812 67.796875 L 138.839844 67.796875 L 138.839844 75.875 L 130.757812 75.875 L 130.757812 92.027344 L 138.839844 92.027344 L 138.839844 100.105469 L 146.921875 100.105469 L 146.921875 108.183594 L 163.082031 108.183594 L 163.082031 100.105469 L 171.164062 100.105469 L 171.164062 83.953125 L 163.082031 83.953125 L 163.082031 75.875 L 171.164062 75.875 L 171.164062 67.796875 L 179.246094 67.796875 L 179.246094 59.722656 L 187.324219 59.722656 L 187.324219 27.414062 L 179.246094 27.414062 L 179.246094 19.335938 " fill-opacity="1" fill-rule="nonzero"/></g><path fill="#f6d923" d="M 138.839844 75.875 L 138.839844 92.027344 L 155.003906 92.027344 L 155.003906 75.875 L 138.839844 75.875 M 163.082031 19.335938 L 171.164062 19.335938 L 171.164062 51.644531 L 163.082031 51.644531 L 163.082031 59.722656 L 155.003906 59.722656 L 155.003906 67.796875 L 138.839844 67.796875 L 138.839844 51.644531 L 146.921875 51.644531 L 146.921875 43.566406 L 155.003906 43.566406 L 155.003906 27.414062 L 138.839844 27.414062 L 138.839844 35.492188 L 122.679688 35.492188 L 122.679688 19.335938 L 130.757812 19.335938 L 130.757812 11.257812 L 163.082031 11.257812 L 163.082031 19.335938 " fill-opacity="1" fill-rule="nonzero"/><path fill="#fcf4bd" d="M 122.679688 27.414062 L 130.757812 27.414062 L 130.757812 19.335938 L 122.679688 19.335938 Z M 122.679688 27.414062 " fill-opacity="1" fill-rule="nonzero"/><path fill="#fcf4bd" d="M 163.082031 19.335938 L 130.757812 19.335938 L 130.757812 11.257812 L 163.082031 11.257812 L 163.082031 19.335938 " fill-opacity="1" fill-rule="nonzero"/><path fill="#fa8221" d="M 138.839844 67.796875 L 146.921875 67.796875 L 146.921875 59.722656 L 138.839844 59.722656 Z M 138.839844 67.796875 " fill-opacity="1" fill-rule="nonzero"/><path fill="#fa8221" d="M 155.003906 92.027344 L 146.921875 92.027344 L 146.921875 83.953125 L 138.839844 83.953125 L 138.839844 92.027344 L 138.839844 75.875 L 146.921875 75.875 L 146.921875 83.953125 L 155.003906 83.953125 L 155.003906 92.027344 " fill-opacity="1" fill-rule="nonzero"/><path fill="#fc4e20" d="M 138.839844 92.027344 L 146.921875 92.027344 L 146.921875 83.953125 L 138.839844 83.953125 Z M 138.839844 92.027344 " fill-opacity="1" fill-rule="nonzero"/></svg>