<svg xmlns="http://www.w3.org/2000/svg" xmlns:xlink="http://www.w3.org/1999/xlink" width="40" zoomAndPan="magnify" viewBox="0 0 192 191.999996" height="40" preserveAspectRatio="xMidYMid meet" version="1.0"><defs><clipPath id="73c8839ace"><path d="M 76 39.871094 L 83 39.871094 L 83 47 L 76 47 Z M 76 39.871094 " clip-rule="nonzero"/></clipPath><clipPath id="b2a260bf10"><path d="M 36.605469 46 L 83 46 L 83 93 L 36.605469 93 Z M 36.605469 46 " clip-rule="nonzero"/></clipPath><clipPath id="1fca7dbc90"><path d="M 82 39.871094 L 103 39.871094 L 103 47 L 82 47 Z M 82 39.871094 " clip-rule="nonzero"/></clipPath><clipPath id="9ce2f3d76b"><path d="M 102 39.871094 L 116 39.871094 L 116 47 L 102 47 Z M 102 39.871094 " clip-rule="nonzero"/></clipPath><clipPath id="3b20fb9a52"><path d="M 36.605469 92 L 44 92 L 44 107 L 36.605469 107 Z M 36.605469 92 " clip-rule="nonzero"/></clipPath><clipPath id="8c2fa925b2"><path d="M 36.605469 106 L 44 106 L 44 113 L 36.605469 113 Z M 36.605469 106 " clip-rule="nonzero"/></clipPath><clipPath id="b9d428b94d"><path d="M 148 79 L 155.105469 79 L 155.105469 113 L 148 113 Z M 148 79 " clip-rule="nonzero"/></clipPath><clipPath id="a4ae110b3e"><path d="M 62 139 L 116 139 L 116 152.371094 L 62 152.371094 Z M 62 139 " clip-rule="nonzero"/></clipPath><clipPath id="bfbdfbcb4b"><path d="M 76 39.871094 L 83 39.871094 L 83 47 L 76 47 Z M 76 39.871094 " clip-rule="nonzero"/></clipPath><clipPath id="f89f33c4de"><path d="M 36.605469 46 L 83 46 L 83 93 L 36.605469 93 Z M 36.605469 46 " clip-rule="nonzero"/></clipPath><clipPath id="758896e085"><path d="M 82 39.871094 L 103 39.871094 L 103 47 L 82 47 Z M 82 39.871094 " clip-rule="nonzero"/></clipPath><clipPath id="4f8f685e78"><path d="M 102 39.871094 L 116 39.871094 L 116 47 L 102 47 Z M 102 39.871094 " clip-rule="nonzero"/></clipPath><clipPath id="075a6e28ae"><path d="M 36.605469 92 L 44 92 L 44 107 L 36.605469 107 Z M 36.605469 92 " clip-rule="nonzero"/></clipPath><clipPath id="73011db665"><path d="M 36.605469 106 L 44 106 L 44 113 L 36.605469 113 Z M 36.605469 106 " clip-rule="nonzero"/></clipPath><clipPath id="054ec2921c"><path d="M 148 79 L 155.105469 79 L 155.105469 113 L 148 113 Z M 148 79 " clip-rule="nonzero"/></clipPath><clipPath id="dd90463924"><path d="M 62 139 L 116 139 L 116 152.371094 L 62 152.371094 Z M 62 139 " clip-rule="nonzero"/></clipPath><clipPath id="e23ca35026"><path d="M 19.199219 6.777344 L 87.449219 6.777344 L 87.449219 83.277344 L 19.199219 83.277344 Z M 19.199219 6.777344 " clip-rule="nonzero"/></clipPath><clipPath id="7117a3f179"><path d="M 115.179688 109 L 183.429688 109 L 183.429688 185.4375 L 115.179688 185.4375 Z M 115.179688 109 " clip-rule="nonzero"/></clipPath></defs><path fill="#ff9432" d="M 69.523438 59.75 L 62.9375 59.75 L 62.9375 66.363281 L 76.105469 66.363281 L 76.105469 59.75 Z M 69.523438 59.75 " fill-opacity="1" fill-rule="nonzero"/><path fill="#ff9432" d="M 56.355469 72.976562 L 56.355469 79.59375 L 49.773438 79.59375 L 49.773438 86.207031 L 62.9375 86.207031 L 62.9375 66.363281 L 56.355469 66.363281 Z M 56.355469 72.976562 " fill-opacity="1" fill-rule="nonzero"/><path fill="#ffa916" d="M 102.4375 59.75 L 89.273438 59.75 L 89.273438 66.363281 L 62.9375 66.363281 L 62.9375 86.207031 L 56.355469 86.207031 L 56.355469 106.046875 L 62.9375 106.046875 L 62.9375 112.660156 L 69.523438 112.660156 L 69.523438 106.046875 L 76.105469 106.046875 L 76.105469 99.433594 L 82.6875 99.433594 L 82.6875 92.820312 L 89.273438 92.820312 L 89.273438 86.207031 L 95.855469 86.207031 L 95.855469 79.59375 L 102.4375 79.59375 L 102.4375 72.976562 L 109.023438 72.976562 L 109.023438 59.75 Z M 102.4375 59.75 " fill-opacity="1" fill-rule="nonzero"/><path fill="#ffd900" d="M 122.1875 53.136719 L 115.605469 53.136719 L 115.605469 46.523438 L 76.105469 46.523438 L 76.105469 53.136719 L 109.023438 53.136719 L 109.023438 59.75 L 128.773438 59.75 L 128.773438 53.136719 Z M 122.1875 53.136719 " fill-opacity="1" fill-rule="nonzero"/><path fill="#ffd900" d="M 128.773438 59.75 L 135.355469 59.75 L 135.355469 66.363281 L 128.773438 66.363281 Z M 128.773438 59.75 " fill-opacity="1" fill-rule="nonzero"/><path fill="#ffd900" d="M 141.9375 66.363281 L 135.355469 66.363281 L 135.355469 79.59375 L 141.9375 79.59375 Z M 141.9375 66.363281 " fill-opacity="1" fill-rule="nonzero"/><path fill="#ffd900" d="M 141.9375 79.59375 L 141.9375 112.660156 L 148.519531 112.660156 L 148.519531 79.59375 Z M 141.9375 79.59375 " fill-opacity="1" fill-rule="nonzero"/><path fill="#ffd900" d="M 69.523438 132.5 L 69.523438 125.886719 L 62.9375 125.886719 L 62.9375 119.273438 L 56.355469 119.273438 L 56.355469 106.046875 L 49.773438 106.046875 L 49.773438 92.820312 L 43.1875 92.820312 L 43.1875 112.660156 L 49.773438 112.660156 L 49.773438 125.886719 L 56.355469 125.886719 L 56.355469 132.5 L 62.9375 132.5 L 62.9375 139.113281 L 76.105469 139.113281 L 76.105469 132.5 Z M 69.523438 132.5 " fill-opacity="1" fill-rule="nonzero"/><path fill="#ffd900" d="M 102.4375 139.113281 L 76.105469 139.113281 L 76.105469 145.726562 L 115.605469 145.726562 L 115.605469 139.113281 Z M 102.4375 139.113281 " fill-opacity="1" fill-rule="nonzero"/><path fill="#ffd900" d="M 128.773438 125.886719 L 135.355469 125.886719 L 135.355469 132.5 L 128.773438 132.5 Z M 128.773438 125.886719 " fill-opacity="1" fill-rule="nonzero"/><path fill="#ffd900" d="M 135.355469 119.273438 L 135.355469 125.886719 L 141.9375 125.886719 L 141.9375 112.660156 L 135.355469 112.660156 Z M 135.355469 119.273438 " fill-opacity="1" fill-rule="nonzero"/><path fill="#ffd900" d="M 115.605469 132.5 L 115.605469 139.113281 L 128.773438 139.113281 L 128.773438 132.5 Z M 115.605469 132.5 " fill-opacity="1" fill-rule="nonzero"/><g clip-path="url(#73c8839ace)"><path fill="#ffe87a" d="M 76.15625 39.964844 L 82.738281 39.964844 L 82.738281 46.578125 L 76.15625 46.578125 Z M 76.15625 39.964844 " fill-opacity="1" fill-rule="nonzero"/></g><g clip-path="url(#b2a260bf10)"><path fill="#ffe87a" d="M 69.574219 46.578125 L 62.992188 46.578125 L 62.992188 53.136719 L 62.9375 53.136719 L 62.9375 53.191406 L 56.40625 53.191406 L 56.40625 59.75 L 56.355469 59.75 L 56.355469 59.804688 L 49.824219 59.804688 L 49.773438 66.363281 L 43.1875 66.363281 L 43.1875 79.59375 L 36.605469 79.59375 L 36.605469 92.820312 L 49.773438 92.820312 L 49.773438 79.59375 L 56.355469 79.59375 L 56.355469 66.363281 L 62.9375 66.363281 L 62.9375 59.804688 L 62.992188 59.804688 L 62.992188 59.75 L 82.6875 59.75 L 82.6875 53.136719 L 76.15625 53.136719 L 76.15625 46.578125 Z M 69.574219 46.578125 " fill-opacity="1" fill-rule="nonzero"/></g><g clip-path="url(#1fca7dbc90)"><path fill="#ffbd0a" d="M 95.855469 39.910156 L 82.6875 39.910156 L 82.6875 46.523438 L 102.4375 46.523438 L 102.4375 39.910156 Z M 95.855469 39.910156 " fill-opacity="1" fill-rule="nonzero"/></g><g clip-path="url(#9ce2f3d76b)"><path fill="#ffa617" d="M 109.023438 39.910156 L 102.4375 39.910156 L 102.4375 46.523438 L 115.605469 46.523438 L 115.605469 39.910156 Z M 109.023438 39.910156 " fill-opacity="1" fill-rule="nonzero"/></g><path fill="#ffa617" d="M 128.773438 53.136719 L 135.355469 53.136719 L 135.355469 59.75 L 128.773438 59.75 Z M 128.773438 53.136719 " fill-opacity="1" fill-rule="nonzero"/><path fill="#ffa617" d="M 122.1875 46.523438 L 115.605469 46.523438 L 115.605469 53.136719 L 128.773438 53.136719 L 128.773438 46.523438 Z M 122.1875 46.523438 " fill-opacity="1" fill-rule="nonzero"/><g clip-path="url(#3b20fb9a52)"><path fill="#ffbd0a" d="M 36.605469 92.820312 L 36.605469 106.046875 L 43.1875 106.046875 L 43.1875 92.820312 Z M 36.605469 92.820312 " fill-opacity="1" fill-rule="nonzero"/></g><g clip-path="url(#8c2fa925b2)"><path fill="#ffa617" d="M 36.605469 106.046875 L 43.1875 106.046875 L 43.1875 112.660156 L 36.605469 112.660156 Z M 36.605469 106.046875 " fill-opacity="1" fill-rule="nonzero"/></g><path fill="#ffa617" d="M 43.1875 112.660156 L 43.1875 125.886719 L 49.773438 125.886719 L 49.773438 112.660156 Z M 43.1875 112.660156 " fill-opacity="1" fill-rule="nonzero"/><path fill="#ff8d1f" d="M 49.773438 125.886719 L 56.355469 125.886719 L 56.355469 132.5 L 49.773438 132.5 Z M 49.773438 125.886719 " fill-opacity="1" fill-rule="nonzero"/><path fill="#ff8d1f" d="M 56.355469 132.5 L 62.9375 132.5 L 62.9375 139.113281 L 56.355469 139.113281 Z M 56.355469 132.5 " fill-opacity="1" fill-rule="nonzero"/><g clip-path="url(#b9d428b94d)"><path fill="#ff8d1f" d="M 148.519531 79.59375 L 148.519531 112.660156 L 155.105469 112.660156 L 155.105469 79.59375 Z M 148.519531 79.59375 " fill-opacity="1" fill-rule="nonzero"/></g><path fill="#ff8d1f" d="M 148.519531 66.363281 L 141.9375 66.363281 L 141.9375 79.59375 L 148.519531 79.59375 Z M 148.519531 66.363281 " fill-opacity="1" fill-rule="nonzero"/><path fill="#ff8d1f" d="M 135.355469 59.75 L 141.9375 59.75 L 141.9375 66.363281 L 135.355469 66.363281 Z M 135.355469 59.75 " fill-opacity="1" fill-rule="nonzero"/><g clip-path="url(#a4ae110b3e)"><path fill="#ff8d1f" d="M 102.4375 145.726562 L 76.105469 145.726562 L 76.105469 139.113281 L 62.9375 139.113281 L 62.9375 145.726562 L 76.105469 145.726562 L 76.105469 152.339844 L 115.605469 152.339844 L 115.605469 145.726562 Z M 102.4375 145.726562 " fill-opacity="1" fill-rule="nonzero"/></g><path fill="#ff8d1f" d="M 141.9375 119.273438 L 141.9375 125.886719 L 148.519531 125.886719 L 148.519531 112.660156 L 141.9375 112.660156 Z M 141.9375 119.273438 " fill-opacity="1" fill-rule="nonzero"/><path fill="#ff8d1f" d="M 135.355469 125.886719 L 141.9375 125.886719 L 141.9375 132.5 L 135.355469 132.5 Z M 135.355469 125.886719 " fill-opacity="1" fill-rule="nonzero"/><path fill="#ff8d1f" d="M 128.773438 132.5 L 135.355469 132.5 L 135.355469 139.113281 L 128.773438 139.113281 Z M 128.773438 132.5 " fill-opacity="1" fill-rule="nonzero"/><path fill="#ff8d1f" d="M 115.605469 139.113281 L 115.605469 145.726562 L 128.773438 145.726562 L 128.773438 139.113281 Z M 115.605469 139.113281 " fill-opacity="1" fill-rule="nonzero"/><path fill="#ffc107" d="M 128.773438 79.59375 L 128.773438 66.363281 L 109.023438 66.363281 L 109.023438 72.976562 L 102.4375 72.976562 L 102.4375 79.59375 L 95.855469 79.59375 L 95.855469 86.207031 L 89.273438 86.207031 L 89.273438 92.820312 L 82.6875 92.820312 L 82.6875 99.433594 L 76.105469 99.433594 L 76.105469 106.046875 L 69.523438 106.046875 L 69.523438 112.660156 L 62.9375 112.660156 L 62.9375 119.273438 L 69.523438 119.273438 L 69.523438 125.886719 L 82.6875 125.886719 L 82.6875 132.5 L 89.273438 132.5 L 89.273438 125.886719 L 95.855469 125.886719 L 95.855469 119.273438 L 102.4375 119.273438 L 102.4375 112.660156 L 109.023438 112.660156 L 109.023438 106.046875 L 115.605469 106.046875 L 115.605469 99.433594 L 122.1875 99.433594 L 122.1875 92.820312 L 128.773438 92.820312 L 128.773438 86.207031 L 135.355469 86.207031 L 135.355469 79.59375 Z M 128.773438 79.59375 " fill-opacity="1" fill-rule="nonzero"/><path fill="#ff8d1f" d="M 56.355469 92.820312 L 56.355469 86.207031 L 49.773438 86.207031 L 49.773438 106.046875 L 56.355469 106.046875 Z M 56.355469 92.820312 " fill-opacity="1" fill-rule="nonzero"/><path fill="#ff8d1f" d="M 122.1875 59.75 L 109.023438 59.75 L 109.023438 66.363281 L 128.773438 66.363281 L 128.773438 59.75 Z M 122.1875 59.75 " fill-opacity="1" fill-rule="nonzero"/><path fill="#ff8d1f" d="M 102.4375 53.136719 L 82.6875 53.136719 L 82.6875 59.75 L 76.105469 59.75 L 76.105469 66.363281 L 89.273438 66.363281 L 89.273438 59.75 L 109.023438 59.75 L 109.023438 53.136719 Z M 102.4375 53.136719 " fill-opacity="1" fill-rule="nonzero"/><path fill="#ff8d1f" d="M 135.355469 66.363281 L 128.773438 66.363281 L 128.773438 79.59375 L 135.355469 79.59375 Z M 135.355469 66.363281 " fill-opacity="1" fill-rule="nonzero"/><path fill="#ff8d1f" d="M 135.355469 79.59375 L 135.355469 112.660156 L 141.9375 112.660156 L 141.9375 79.59375 Z M 135.355469 79.59375 " fill-opacity="1" fill-rule="nonzero"/><path fill="#ff8d1f" d="M 62.9375 119.273438 L 69.523438 119.273438 L 69.523438 125.886719 L 62.9375 125.886719 Z M 62.9375 119.273438 " fill-opacity="1" fill-rule="nonzero"/><path fill="#ff8d1f" d="M 62.9375 106.046875 L 56.355469 106.046875 L 56.355469 119.273438 L 62.9375 119.273438 Z M 62.9375 106.046875 " fill-opacity="1" fill-rule="nonzero"/><path fill="#ff8d1f" d="M 115.605469 125.886719 L 115.605469 132.5 L 128.773438 132.5 L 128.773438 125.886719 Z M 115.605469 125.886719 " fill-opacity="1" fill-rule="nonzero"/><path fill="#ff8d1f" d="M 102.4375 132.5 L 82.6875 132.5 L 82.6875 125.886719 L 69.523438 125.886719 L 69.523438 132.5 L 76.105469 132.5 L 76.105469 139.113281 L 115.605469 139.113281 L 115.605469 132.5 Z M 102.4375 132.5 " fill-opacity="1" fill-rule="nonzero"/><path fill="#ff8d1f" d="M 128.773438 119.273438 L 128.773438 125.886719 L 135.355469 125.886719 L 135.355469 112.660156 L 128.773438 112.660156 Z M 128.773438 119.273438 " fill-opacity="1" fill-rule="nonzero"/><path fill="#ffd900" d="M 128.773438 86.207031 L 128.773438 92.820312 L 122.1875 92.820312 L 122.1875 99.433594 L 115.605469 99.433594 L 115.605469 106.046875 L 109.023438 106.046875 L 109.023438 112.660156 L 102.4375 112.660156 L 102.4375 119.273438 L 95.855469 119.273438 L 95.855469 125.886719 L 89.273438 125.886719 L 89.273438 132.5 L 115.605469 132.5 L 115.605469 125.886719 L 128.773438 125.886719 L 128.773438 112.660156 L 135.355469 112.660156 L 135.355469 86.207031 Z M 128.773438 86.207031 " fill-opacity="1" fill-rule="nonzero"/><path fill="#ff9432" d="M 69.523438 59.75 L 62.9375 59.75 L 62.9375 66.363281 L 76.105469 66.363281 L 76.105469 59.75 Z M 69.523438 59.75 " fill-opacity="1" fill-rule="nonzero"/><path fill="#ff9432" d="M 56.355469 72.976562 L 56.355469 79.59375 L 49.773438 79.59375 L 49.773438 87.753906 L 56.355469 87.753906 L 56.355469 86.207031 L 62.9375 86.207031 L 62.9375 66.363281 L 56.355469 66.363281 Z M 56.355469 72.976562 " fill-opacity="1" fill-rule="nonzero"/><path fill="#ffa916" d="M 102.4375 59.75 L 89.273438 59.75 L 89.273438 66.363281 L 62.9375 66.363281 L 62.9375 86.207031 L 56.355469 86.207031 L 56.355469 106.046875 L 62.9375 106.046875 L 62.9375 112.660156 L 69.523438 112.660156 L 69.523438 106.046875 L 76.105469 106.046875 L 76.105469 99.433594 L 82.6875 99.433594 L 82.6875 92.820312 L 89.273438 92.820312 L 89.273438 86.207031 L 95.855469 86.207031 L 95.855469 79.59375 L 102.4375 79.59375 L 102.4375 72.976562 L 109.023438 72.976562 L 109.023438 59.75 Z M 102.4375 59.75 " fill-opacity="1" fill-rule="nonzero"/><path fill="#ffd900" d="M 122.1875 53.136719 L 115.605469 53.136719 L 115.605469 46.523438 L 76.105469 46.523438 L 76.105469 53.136719 L 109.023438 53.136719 L 109.023438 59.75 L 128.773438 59.75 L 128.773438 53.136719 Z M 122.1875 53.136719 " fill-opacity="1" fill-rule="nonzero"/><path fill="#ffd900" d="M 128.773438 59.75 L 135.355469 59.75 L 135.355469 66.363281 L 128.773438 66.363281 Z M 128.773438 59.75 " fill-opacity="1" fill-rule="nonzero"/><path fill="#ffd900" d="M 141.9375 66.363281 L 135.355469 66.363281 L 135.355469 79.59375 L 141.9375 79.59375 Z M 141.9375 66.363281 " fill-opacity="1" fill-rule="nonzero"/><path fill="#ffd900" d="M 141.9375 79.59375 L 141.9375 112.660156 L 148.519531 112.660156 L 148.519531 79.59375 Z M 141.9375 79.59375 " fill-opacity="1" fill-rule="nonzero"/><path fill="#ffd900" d="M 69.523438 132.5 L 69.523438 125.886719 L 62.9375 125.886719 L 62.9375 119.273438 L 56.355469 119.273438 L 56.355469 106.046875 L 49.773438 106.046875 L 49.773438 92.820312 L 43.1875 92.820312 L 43.1875 112.660156 L 49.773438 112.660156 L 49.773438 125.886719 L 56.355469 125.886719 L 56.355469 132.5 L 62.9375 132.5 L 62.9375 139.113281 L 76.105469 139.113281 L 76.105469 132.5 Z M 69.523438 132.5 " fill-opacity="1" fill-rule="nonzero"/><path fill="#ffd900" d="M 102.4375 139.113281 L 76.105469 139.113281 L 76.105469 145.726562 L 115.605469 145.726562 L 115.605469 139.113281 Z M 102.4375 139.113281 " fill-opacity="1" fill-rule="nonzero"/><path fill="#ffd900" d="M 128.773438 125.886719 L 135.355469 125.886719 L 135.355469 132.5 L 128.773438 132.5 Z M 128.773438 125.886719 " fill-opacity="1" fill-rule="nonzero"/><path fill="#ffd900" d="M 135.355469 119.273438 L 135.355469 125.886719 L 141.9375 125.886719 L 141.9375 112.660156 L 135.355469 112.660156 Z M 135.355469 119.273438 " fill-opacity="1" fill-rule="nonzero"/><path fill="#ffd900" d="M 115.605469 132.5 L 115.605469 139.113281 L 128.773438 139.113281 L 128.773438 132.5 Z M 115.605469 132.5 " fill-opacity="1" fill-rule="nonzero"/><g clip-path="url(#bfbdfbcb4b)"><path fill="#ffe87a" d="M 76.15625 39.964844 L 82.738281 39.964844 L 82.738281 46.578125 L 76.15625 46.578125 Z M 76.15625 39.964844 " fill-opacity="1" fill-rule="nonzero"/></g><g clip-path="url(#f89f33c4de)"><path fill="#ffe87a" d="M 69.574219 46.578125 L 62.992188 46.578125 L 62.992188 53.136719 L 62.9375 53.136719 L 62.9375 53.191406 L 56.40625 53.191406 L 56.40625 59.75 L 56.355469 59.75 L 56.355469 59.804688 L 49.824219 59.804688 L 49.773438 66.363281 L 43.1875 66.363281 L 43.1875 79.59375 L 36.605469 79.59375 L 36.605469 92.820312 L 49.773438 92.820312 L 49.773438 79.59375 L 56.355469 79.59375 L 56.355469 66.363281 L 62.9375 66.363281 L 62.9375 59.804688 L 62.992188 59.804688 L 62.992188 59.75 L 82.6875 59.75 L 82.6875 53.136719 L 76.15625 53.136719 L 76.15625 46.578125 Z M 69.574219 46.578125 " fill-opacity="1" fill-rule="nonzero"/></g><g clip-path="url(#758896e085)"><path fill="#ffbd0a" d="M 95.855469 39.910156 L 82.6875 39.910156 L 82.6875 46.523438 L 102.4375 46.523438 L 102.4375 39.910156 Z M 95.855469 39.910156 " fill-opacity="1" fill-rule="nonzero"/></g><g clip-path="url(#4f8f685e78)"><path fill="#ffa617" d="M 109.023438 39.910156 L 102.4375 39.910156 L 102.4375 46.523438 L 115.605469 46.523438 L 115.605469 39.910156 Z M 109.023438 39.910156 " fill-opacity="1" fill-rule="nonzero"/></g><path fill="#ffa617" d="M 128.773438 53.136719 L 135.355469 53.136719 L 135.355469 59.75 L 128.773438 59.75 Z M 128.773438 53.136719 " fill-opacity="1" fill-rule="nonzero"/><path fill="#ffa617" d="M 122.1875 46.523438 L 115.605469 46.523438 L 115.605469 53.136719 L 128.773438 53.136719 L 128.773438 46.523438 Z M 122.1875 46.523438 " fill-opacity="1" fill-rule="nonzero"/><g clip-path="url(#075a6e28ae)"><path fill="#ffbd0a" d="M 36.605469 92.820312 L 36.605469 106.046875 L 43.1875 106.046875 L 43.1875 92.820312 Z M 36.605469 92.820312 " fill-opacity="1" fill-rule="nonzero"/></g><g clip-path="url(#73011db665)"><path fill="#ffa617" d="M 36.605469 106.046875 L 43.1875 106.046875 L 43.1875 112.660156 L 36.605469 112.660156 Z M 36.605469 106.046875 " fill-opacity="1" fill-rule="nonzero"/></g><path fill="#ffa617" d="M 43.1875 112.660156 L 43.1875 125.886719 L 49.773438 125.886719 L 49.773438 112.660156 Z M 43.1875 112.660156 " fill-opacity="1" fill-rule="nonzero"/><path fill="#ff8d1f" d="M 49.773438 125.886719 L 56.355469 125.886719 L 56.355469 132.5 L 49.773438 132.5 Z M 49.773438 125.886719 " fill-opacity="1" fill-rule="nonzero"/><path fill="#ff8d1f" d="M 56.355469 132.5 L 62.9375 132.5 L 62.9375 139.113281 L 56.355469 139.113281 Z M 56.355469 132.5 " fill-opacity="1" fill-rule="nonzero"/><g clip-path="url(#054ec2921c)"><path fill="#ff8d1f" d="M 148.519531 79.59375 L 148.519531 112.660156 L 155.105469 112.660156 L 155.105469 79.59375 Z M 148.519531 79.59375 " fill-opacity="1" fill-rule="nonzero"/></g><path fill="#ff8d1f" d="M 148.519531 66.363281 L 141.9375 66.363281 L 141.9375 79.59375 L 148.519531 79.59375 Z M 148.519531 66.363281 " fill-opacity="1" fill-rule="nonzero"/><path fill="#ff8d1f" d="M 135.355469 59.75 L 141.9375 59.75 L 141.9375 66.363281 L 135.355469 66.363281 Z M 135.355469 59.75 " fill-opacity="1" fill-rule="nonzero"/><g clip-path="url(#dd90463924)"><path fill="#ff8d1f" d="M 102.4375 145.726562 L 76.105469 145.726562 L 76.105469 139.113281 L 62.9375 139.113281 L 62.9375 145.726562 L 76.105469 145.726562 L 76.105469 152.339844 L 115.605469 152.339844 L 115.605469 145.726562 Z M 102.4375 145.726562 " fill-opacity="1" fill-rule="nonzero"/></g><path fill="#ff8d1f" d="M 141.9375 119.273438 L 141.9375 125.886719 L 148.519531 125.886719 L 148.519531 112.660156 L 141.9375 112.660156 Z M 141.9375 119.273438 " fill-opacity="1" fill-rule="nonzero"/><path fill="#ff8d1f" d="M 135.355469 125.886719 L 141.9375 125.886719 L 141.9375 132.5 L 135.355469 132.5 Z M 135.355469 125.886719 " fill-opacity="1" fill-rule="nonzero"/><path fill="#ff8d1f" d="M 128.773438 132.5 L 135.355469 132.5 L 135.355469 139.113281 L 128.773438 139.113281 Z M 128.773438 132.5 " fill-opacity="1" fill-rule="nonzero"/><path fill="#ff8d1f" d="M 115.605469 139.113281 L 115.605469 145.726562 L 128.773438 145.726562 L 128.773438 139.113281 Z M 115.605469 139.113281 " fill-opacity="1" fill-rule="nonzero"/><path fill="#ffc107" d="M 128.773438 79.59375 L 128.773438 66.363281 L 109.023438 66.363281 L 109.023438 72.976562 L 102.4375 72.976562 L 102.4375 79.59375 L 95.855469 79.59375 L 95.855469 86.207031 L 89.273438 86.207031 L 89.273438 92.820312 L 82.6875 92.820312 L 82.6875 99.433594 L 76.105469 99.433594 L 76.105469 106.046875 L 69.523438 106.046875 L 69.523438 112.660156 L 62.9375 112.660156 L 62.9375 119.273438 L 69.523438 119.273438 L 69.523438 125.886719 L 82.6875 125.886719 L 82.6875 132.5 L 89.273438 132.5 L 89.273438 125.886719 L 95.855469 125.886719 L 95.855469 119.273438 L 102.4375 119.273438 L 102.4375 112.660156 L 109.023438 112.660156 L 109.023438 106.046875 L 115.605469 106.046875 L 115.605469 99.433594 L 122.1875 99.433594 L 122.1875 92.820312 L 128.773438 92.820312 L 128.773438 86.207031 L 135.355469 86.207031 L 135.355469 79.59375 Z M 128.773438 79.59375 " fill-opacity="1" fill-rule="nonzero"/><path fill="#ff8d1f" d="M 56.355469 92.820312 L 56.355469 86.207031 L 49.773438 86.207031 L 49.773438 106.046875 L 56.355469 106.046875 Z M 56.355469 92.820312 " fill-opacity="1" fill-rule="nonzero"/><path fill="#ff8d1f" d="M 122.1875 59.75 L 109.023438 59.75 L 109.023438 66.363281 L 128.773438 66.363281 L 128.773438 59.75 Z M 122.1875 59.75 " fill-opacity="1" fill-rule="nonzero"/><path fill="#ff8d1f" d="M 102.4375 53.136719 L 82.6875 53.136719 L 82.6875 59.75 L 76.105469 59.75 L 76.105469 66.363281 L 89.273438 66.363281 L 89.273438 59.75 L 109.023438 59.75 L 109.023438 53.136719 Z M 102.4375 53.136719 " fill-opacity="1" fill-rule="nonzero"/><path fill="#ff8d1f" d="M 135.355469 66.363281 L 128.773438 66.363281 L 128.773438 79.59375 L 135.355469 79.59375 Z M 135.355469 66.363281 " fill-opacity="1" fill-rule="nonzero"/><path fill="#ff8d1f" d="M 135.355469 79.59375 L 135.355469 112.660156 L 141.9375 112.660156 L 141.9375 79.59375 Z M 135.355469 79.59375 " fill-opacity="1" fill-rule="nonzero"/><path fill="#ff8d1f" d="M 62.9375 119.273438 L 69.523438 119.273438 L 69.523438 125.886719 L 62.9375 125.886719 Z M 62.9375 119.273438 " fill-opacity="1" fill-rule="nonzero"/><path fill="#ff8d1f" d="M 62.9375 106.046875 L 56.355469 106.046875 L 56.355469 119.273438 L 62.9375 119.273438 Z M 62.9375 106.046875 " fill-opacity="1" fill-rule="nonzero"/><path fill="#ff8d1f" d="M 115.605469 125.886719 L 115.605469 132.5 L 128.773438 132.5 L 128.773438 125.886719 Z M 115.605469 125.886719 " fill-opacity="1" fill-rule="nonzero"/><path fill="#ff8d1f" d="M 102.4375 132.5 L 82.6875 132.5 L 82.6875 125.886719 L 69.523438 125.886719 L 69.523438 132.5 L 76.105469 132.5 L 76.105469 139.113281 L 115.605469 139.113281 L 115.605469 132.5 Z M 102.4375 132.5 " fill-opacity="1" fill-rule="nonzero"/><path fill="#ff8d1f" d="M 128.773438 119.273438 L 128.773438 125.886719 L 135.355469 125.886719 L 135.355469 112.660156 L 128.773438 112.660156 Z M 128.773438 119.273438 " fill-opacity="1" fill-rule="nonzero"/><path fill="#ffd900" d="M 128.773438 86.207031 L 128.773438 92.820312 L 122.1875 92.820312 L 122.1875 99.433594 L 115.605469 99.433594 L 115.605469 106.046875 L 109.023438 106.046875 L 109.023438 112.660156 L 102.4375 112.660156 L 102.4375 119.273438 L 95.855469 119.273438 L 95.855469 125.886719 L 89.273438 125.886719 L 89.273438 132.5 L 115.605469 132.5 L 115.605469 125.886719 L 128.773438 125.886719 L 128.773438 112.660156 L 135.355469 112.660156 L 135.355469 86.207031 Z M 128.773438 86.207031 " fill-opacity="1" fill-rule="nonzero"/><g clip-path="url(#e23ca35026)"><path fill="#ffb502" d="M 21.929688 25.941406 L 19.199219 25.941406 L 19.199219 23.21875 L 30.121094 23.21875 L 30.121094 17.765625 L 32.851562 17.765625 L 32.851562 6.863281 L 35.578125 6.863281 L 35.578125 15.039062 L 38.3125 15.039062 L 38.3125 17.765625 L 41.039062 17.765625 L 41.039062 20.492188 L 43.769531 20.492188 L 43.769531 23.21875 L 49.230469 23.21875 L 49.230469 25.941406 L 43.769531 25.941406 L 43.769531 28.671875 L 41.039062 28.671875 L 41.039062 31.394531 L 38.3125 31.394531 L 38.3125 42.300781 L 35.578125 42.300781 L 35.578125 34.125 L 32.851562 34.125 L 32.851562 31.394531 L 30.121094 31.394531 L 30.121094 28.671875 L 27.390625 28.671875 L 27.390625 25.941406 Z M 46.5 64.109375 L 46.5 61.386719 L 41.039062 61.386719 L 41.039062 55.933594 L 38.3125 55.933594 L 38.3125 50.480469 L 35.578125 50.480469 L 35.578125 58.65625 L 32.851562 58.65625 L 32.851562 61.386719 L 21.929688 61.386719 L 21.929688 64.109375 L 27.390625 64.109375 L 27.390625 66.835938 L 30.121094 66.835938 L 30.121094 72.289062 L 32.851562 72.289062 L 32.851562 83.191406 L 35.578125 83.191406 L 35.578125 75.015625 L 38.3125 75.015625 L 38.3125 69.5625 L 41.039062 69.5625 L 41.039062 66.835938 L 51.960938 66.835938 L 51.960938 64.109375 Z M 84.722656 36.847656 L 79.261719 36.847656 L 79.261719 34.125 L 76.527344 34.125 L 76.527344 31.394531 L 73.800781 31.394531 L 73.800781 20.492188 L 71.070312 20.492188 L 71.070312 28.671875 L 68.339844 28.671875 L 68.339844 31.394531 L 65.609375 31.394531 L 65.609375 36.847656 L 62.878906 36.847656 L 62.878906 39.574219 L 54.6875 39.574219 L 54.6875 42.300781 L 65.609375 42.300781 L 65.609375 45.027344 L 68.339844 45.027344 L 68.339844 53.203125 L 71.070312 53.203125 L 71.070312 58.65625 L 73.800781 58.65625 L 73.800781 45.027344 L 76.527344 45.027344 L 76.527344 42.300781 L 79.261719 42.300781 L 79.261719 39.574219 L 87.449219 39.574219 L 87.449219 36.847656 Z M 84.722656 36.847656 " fill-opacity="1" fill-rule="nonzero"/></g><g clip-path="url(#7117a3f179)"><path fill="#ffb502" d="M 117.910156 128.101562 L 115.179688 128.101562 L 115.179688 125.378906 L 126.101562 125.378906 L 126.101562 119.925781 L 128.828125 119.925781 L 128.828125 109.023438 L 131.558594 109.023438 L 131.558594 117.199219 L 134.289062 117.199219 L 134.289062 119.925781 L 137.019531 119.925781 L 137.019531 122.652344 L 139.75 122.652344 L 139.75 125.378906 L 145.207031 125.378906 L 145.207031 128.101562 L 139.75 128.101562 L 139.75 130.832031 L 137.019531 130.832031 L 137.019531 133.554688 L 134.289062 133.554688 L 134.289062 144.460938 L 131.558594 144.460938 L 131.558594 136.285156 L 128.828125 136.285156 L 128.828125 133.554688 L 126.101562 133.554688 L 126.101562 130.832031 L 123.367188 130.832031 L 123.367188 128.101562 Z M 142.480469 166.269531 L 142.480469 163.546875 L 137.019531 163.546875 L 137.019531 158.09375 L 134.289062 158.09375 L 134.289062 152.640625 L 131.558594 152.640625 L 131.558594 160.816406 L 128.828125 160.816406 L 128.828125 163.546875 L 117.910156 163.546875 L 117.910156 166.269531 L 123.367188 166.269531 L 123.367188 168.996094 L 126.101562 168.996094 L 126.101562 174.449219 L 128.828125 174.449219 L 128.828125 185.355469 L 131.558594 185.355469 L 131.558594 177.175781 L 134.289062 177.175781 L 134.289062 171.722656 L 137.019531 171.722656 L 137.019531 168.996094 L 147.941406 168.996094 L 147.941406 166.269531 Z M 180.699219 139.007812 L 175.238281 139.007812 L 175.238281 136.285156 L 172.507812 136.285156 L 172.507812 133.554688 L 169.78125 133.554688 L 169.78125 122.652344 L 167.050781 122.652344 L 167.050781 130.832031 L 164.320312 130.832031 L 164.320312 133.554688 L 161.589844 133.554688 L 161.589844 139.007812 L 158.859375 139.007812 L 158.859375 141.734375 L 150.667969 141.734375 L 150.667969 144.460938 L 161.589844 144.460938 L 161.589844 147.1875 L 164.320312 147.1875 L 164.320312 155.363281 L 167.050781 155.363281 L 167.050781 160.816406 L 169.78125 160.816406 L 169.78125 147.1875 L 172.507812 147.1875 L 172.507812 144.460938 L 175.238281 144.460938 L 175.238281 141.734375 L 183.429688 141.734375 L 183.429688 139.007812 Z M 180.699219 139.007812 " fill-opacity="1" fill-rule="nonzero"/></g></svg>