<svg xmlns="http://www.w3.org/2000/svg" xmlns:xlink="http://www.w3.org/1999/xlink" width="1366" zoomAndPan="magnify" viewBox="0 0 1024.5 576" height="768" preserveAspectRatio="xMidYMid meet" version="1.0"><defs><filter x="0%" y="0%" width="100%" height="100%" id="275cc94fd7"><feColorMatrix values="0 0 0 0 1 0 0 0 0 1 0 0 0 0 1 0 0 0 1 0" color-interpolation-filters="sRGB"/></filter><clipPath id="25338fe596"><path d="M 0 0.140625 L 1024 0.140625 L 1024 575.859375 L 0 575.859375 Z M 0 0.140625 " clip-rule="nonzero"/></clipPath><mask id="3706ddbbea"><g filter="url(#275cc94fd7)"><rect x="-102.45" width="1229.4" fill="#000000" y="-57.6" height="691.2" fill-opacity="0.3"/></g></mask><clipPath id="4cf12f7e89"><path d="M 287 0.140625 L 298 0.140625 L 298 10 L 287 10 Z M 287 0.140625 " clip-rule="nonzero"/></clipPath><clipPath id="467e9ed8f5"><path d="M 239 565 L 250 565 L 250 575.859375 L 239 575.859375 Z M 239 565 " clip-rule="nonzero"/></clipPath><clipPath id="14622e16f8"><path d="M 901 0.140625 L 912 0.140625 L 912 10 L 901 10 Z M 901 0.140625 " clip-rule="nonzero"/></clipPath><clipPath id="9ee0018ae3"><path d="M 1016 48 L 1024 48 L 1024 58 L 1016 58 Z M 1016 48 " clip-rule="nonzero"/></clipPath><clipPath id="dbb9ac7a51"><path d="M 614.183594 143 L 624 143 L 624 154 L 614.183594 154 Z M 614.183594 143 " clip-rule="nonzero"/></clipPath><clipPath id="2977b1ad8c"><path d="M 853 565 L 864 565 L 864 575.859375 L 853 575.859375 Z M 853 565 " clip-rule="nonzero"/></clipPath><clipPath id="00cb00d6df"><rect x="0" width="1024" y="0" height="576"/></clipPath><clipPath id="9c0bd25f26"><path d="M 114.324219 382.40625 L 118.054688 382.40625 L 118.054688 386.210938 L 114.324219 386.210938 Z M 114.324219 382.40625 " clip-rule="nonzero"/></clipPath><clipPath id="609ef8f799"><path d="M 73.484375 468.003906 L 77.273438 468.003906 L 77.273438 471.851562 L 73.484375 471.851562 Z M 73.484375 468.003906 " clip-rule="nonzero"/></clipPath><clipPath id="a5a2dc2c4b"><path d="M 73 341.421875 L 78 341.421875 L 78 346 L 73 346 Z M 73 341.421875 " clip-rule="nonzero"/></clipPath><clipPath id="bbcff1b6f1"><path d="M 32.613281 382 L 37 382 L 37 387 L 32.613281 387 Z M 32.613281 382 " clip-rule="nonzero"/></clipPath><clipPath id="2e5ceae8fa"><path d="M 961.394531 88.917969 L 966.207031 88.917969 L 966.207031 93.816406 L 961.394531 93.816406 Z M 961.394531 88.917969 " clip-rule="nonzero"/></clipPath><clipPath id="b76e248b24"><path d="M 908.738281 199.113281 L 913.625 199.113281 L 913.625 204.070312 L 908.738281 204.070312 Z M 908.738281 199.113281 " clip-rule="nonzero"/></clipPath><clipPath id="28a3b57f88"><path d="M 908 36.160156 L 914 36.160156 L 914 41 L 908 41 Z M 908 36.160156 " clip-rule="nonzero"/></clipPath><clipPath id="84799a6c27"><path d="M 856.039062 88 L 861 88 L 861 94 L 856.039062 94 Z M 856.039062 88 " clip-rule="nonzero"/></clipPath><clipPath id="0268d46e9b"><path d="M 652.15625 454.746094 L 654.804688 454.746094 L 654.804688 457.457031 L 652.15625 457.457031 Z M 652.15625 454.746094 " clip-rule="nonzero"/></clipPath><clipPath id="04f479b2ab"><path d="M 623.136719 515.746094 L 625.832031 515.746094 L 625.832031 518.488281 L 623.136719 518.488281 Z M 623.136719 515.746094 " clip-rule="nonzero"/></clipPath><clipPath id="f0f4b92704"><path d="M 623 425.539062 L 626 425.539062 L 626 429 L 623 429 Z M 623 425.539062 " clip-rule="nonzero"/></clipPath><clipPath id="5fdf7207e6"><path d="M 594.101562 454 L 597 454 L 597 458 L 594.101562 458 Z M 594.101562 454 " clip-rule="nonzero"/></clipPath><clipPath id="0f264015f4"><path d="M 234.089844 114.546875 L 237.820312 114.546875 L 237.820312 118.351562 L 234.089844 118.351562 Z M 234.089844 114.546875 " clip-rule="nonzero"/></clipPath><clipPath id="5976823232"><path d="M 193.246094 200.144531 L 197 200.144531 L 197 203.992188 L 193.246094 203.992188 Z M 193.246094 200.144531 " clip-rule="nonzero"/></clipPath><clipPath id="6f9dbf249d"><path d="M 193 73.5625 L 197 73.5625 L 197 78 L 193 78 Z M 193 73.5625 " clip-rule="nonzero"/></clipPath><clipPath id="a7052d9449"><path d="M 152.378906 114 L 157 114 L 157 119 L 152.378906 119 Z M 152.378906 114 " clip-rule="nonzero"/></clipPath></defs><g clip-path="url(#25338fe596)"><g mask="url(#3706ddbbea)"><g transform="matrix(1, 0, 0, 1, 0, 0.000000000000055289)"><g clip-path="url(#00cb00d6df)"><g clip-path="url(#4cf12f7e89)"><path fill="#554e6d" d="M 287.640625 -0.1875 L 297.230469 -0.1875 L 297.230469 9.402344 L 287.640625 9.402344 Z M 287.640625 -0.1875 " fill-opacity="1" fill-rule="nonzero"/></g><path fill="#554e6d" d="M 47.941406 47.753906 L 57.527344 47.753906 L 57.527344 57.339844 L 47.941406 57.339844 Z M 47.941406 47.753906 " fill-opacity="1" fill-rule="nonzero"/><path fill="#554e6d" d="M 421.875 76.515625 L 431.460938 76.515625 L 431.460938 86.105469 L 421.875 86.105469 Z M 421.875 76.515625 " fill-opacity="1" fill-rule="nonzero"/><path fill="#554e6d" d="M 191.761719 268.277344 L 201.347656 268.277344 L 201.347656 277.867188 L 191.761719 277.867188 Z M 191.761719 268.277344 " fill-opacity="1" fill-rule="nonzero"/><path fill="#554e6d" d="M 546.519531 277.867188 L 556.109375 277.867188 L 556.109375 287.453125 L 546.519531 287.453125 Z M 546.519531 277.867188 " fill-opacity="1" fill-rule="nonzero"/><path fill="#554e6d" d="M 38.351562 392.921875 L 47.941406 392.921875 L 47.941406 402.511719 L 38.351562 402.511719 Z M 38.351562 392.921875 " fill-opacity="1" fill-rule="nonzero"/><path fill="#554e6d" d="M 325.992188 469.628906 L 335.582031 469.628906 L 335.582031 479.214844 L 325.992188 479.214844 Z M 325.992188 469.628906 " fill-opacity="1" fill-rule="nonzero"/><path fill="#554e6d" d="M 460.226562 536.746094 L 469.816406 536.746094 L 469.816406 546.332031 L 460.226562 546.332031 Z M 460.226562 536.746094 " fill-opacity="1" fill-rule="nonzero"/><path fill="#ffffff" d="M 38.351562 38.164062 L 47.941406 38.164062 L 47.941406 47.753906 L 38.351562 47.753906 Z M 38.351562 38.164062 " fill-opacity="1" fill-rule="nonzero"/><path fill="#ffffff" d="M 421.875 38.164062 L 431.460938 38.164062 L 431.460938 47.753906 L 421.875 47.753906 Z M 421.875 38.164062 " fill-opacity="1" fill-rule="nonzero"/><path fill="#ffffff" d="M 402.699219 47.753906 L 412.285156 47.753906 L 412.285156 57.339844 L 402.699219 57.339844 Z M 402.699219 47.753906 " fill-opacity="1" fill-rule="nonzero"/><path fill="#ffffff" d="M 536.929688 181.984375 L 546.519531 181.984375 L 546.519531 191.574219 L 536.929688 191.574219 Z M 536.929688 181.984375 " fill-opacity="1" fill-rule="nonzero"/><path fill="#ffffff" d="M 38.351562 268.277344 L 47.941406 268.277344 L 47.941406 277.867188 L 38.351562 277.867188 Z M 38.351562 268.277344 " fill-opacity="1" fill-rule="nonzero"/><path fill="#ffffff" d="M 575.285156 297.042969 L 584.871094 297.042969 L 584.871094 306.628906 L 575.285156 306.628906 Z M 575.285156 297.042969 " fill-opacity="1" fill-rule="nonzero"/><path fill="#ffffff" d="M 124.644531 373.746094 L 134.234375 373.746094 L 134.234375 383.335938 L 124.644531 383.335938 Z M 124.644531 373.746094 " fill-opacity="1" fill-rule="nonzero"/><path fill="#ffffff" d="M 393.109375 431.277344 L 402.699219 431.277344 L 402.699219 440.863281 L 393.109375 440.863281 Z M 393.109375 431.277344 " fill-opacity="1" fill-rule="nonzero"/><path fill="#ffffff" d="M 565.695312 450.453125 L 575.285156 450.453125 L 575.285156 460.039062 L 565.695312 460.039062 Z M 565.695312 450.453125 " fill-opacity="1" fill-rule="nonzero"/><path fill="#ffffff" d="M 441.050781 507.980469 L 450.640625 507.980469 L 450.640625 517.566406 L 441.050781 517.566406 Z M 441.050781 507.980469 " fill-opacity="1" fill-rule="nonzero"/><path fill="#ffffff" d="M 47.941406 555.921875 L 57.527344 555.921875 L 57.527344 565.507812 L 47.941406 565.507812 Z M 47.941406 555.921875 " fill-opacity="1" fill-rule="nonzero"/><path fill="#8a859b" d="M 393.109375 57.339844 L 402.699219 57.339844 L 402.699219 66.929688 L 393.109375 66.929688 Z M 393.109375 57.339844 " fill-opacity="1" fill-rule="nonzero"/><path fill="#8a859b" d="M 450.640625 95.695312 L 460.226562 95.695312 L 460.226562 105.28125 L 450.640625 105.28125 Z M 450.640625 95.695312 " fill-opacity="1" fill-rule="nonzero"/><path fill="#8a859b" d="M 0 143.632812 L 9.589844 143.632812 L 9.589844 153.222656 L 0 153.222656 Z M 0 143.632812 " fill-opacity="1" fill-rule="nonzero"/><path fill="#8a859b" d="M 354.757812 153.222656 L 364.347656 153.222656 L 364.347656 162.808594 L 354.757812 162.808594 Z M 354.757812 153.222656 " fill-opacity="1" fill-rule="nonzero"/><path fill="#8a859b" d="M 508.167969 335.394531 L 517.753906 335.394531 L 517.753906 344.984375 L 508.167969 344.984375 Z M 508.167969 335.394531 " fill-opacity="1" fill-rule="nonzero"/><path fill="#8a859b" d="M 19.175781 344.984375 L 28.765625 344.984375 L 28.765625 354.570312 L 19.175781 354.570312 Z M 19.175781 344.984375 " fill-opacity="1" fill-rule="nonzero"/><path fill="#8a859b" d="M 373.933594 412.097656 L 383.523438 412.097656 L 383.523438 421.6875 L 373.933594 421.6875 Z M 373.933594 412.097656 " fill-opacity="1" fill-rule="nonzero"/><path fill="#8a859b" d="M 488.992188 507.980469 L 498.578125 507.980469 L 498.578125 517.566406 L 488.992188 517.566406 Z M 488.992188 507.980469 " fill-opacity="1" fill-rule="nonzero"/><path fill="#8a859b" d="M 325.992188 546.332031 L 335.582031 546.332031 L 335.582031 555.921875 L 325.992188 555.921875 Z M 325.992188 546.332031 " fill-opacity="1" fill-rule="nonzero"/><path fill="#8a859b" d="M 28.765625 555.921875 L 38.351562 555.921875 L 38.351562 565.507812 L 28.765625 565.507812 Z M 28.765625 555.921875 " fill-opacity="1" fill-rule="nonzero"/><g clip-path="url(#467e9ed8f5)"><path fill="#8a859b" d="M 239.703125 565.507812 L 249.289062 565.507812 L 249.289062 575.097656 L 239.703125 575.097656 Z M 239.703125 565.507812 " fill-opacity="1" fill-rule="nonzero"/></g><path fill="#bdbac6" d="M 412.285156 95.695312 L 421.875 95.695312 L 421.875 105.28125 L 412.285156 105.28125 Z M 412.285156 95.695312 " fill-opacity="1" fill-rule="nonzero"/><path fill="#bdbac6" d="M 182.171875 114.871094 L 191.761719 114.871094 L 191.761719 124.457031 L 182.171875 124.457031 Z M 182.171875 114.871094 " fill-opacity="1" fill-rule="nonzero"/><path fill="#bdbac6" d="M 249.289062 287.453125 L 258.878906 287.453125 L 258.878906 297.042969 L 249.289062 297.042969 Z M 249.289062 287.453125 " fill-opacity="1" fill-rule="nonzero"/><path fill="#bdbac6" d="M 335.582031 450.453125 L 345.171875 450.453125 L 345.171875 460.039062 L 335.582031 460.039062 Z M 335.582031 450.453125 " fill-opacity="1" fill-rule="nonzero"/><path fill="#bdbac6" d="M 220.527344 555.921875 L 230.113281 555.921875 L 230.113281 565.507812 L 220.527344 565.507812 Z M 220.527344 555.921875 " fill-opacity="1" fill-rule="nonzero"/><path fill="#bdbac6" d="M 536.929688 555.921875 L 546.519531 555.921875 L 546.519531 565.507812 L 536.929688 565.507812 Z M 536.929688 555.921875 " fill-opacity="1" fill-rule="nonzero"/><g clip-path="url(#14622e16f8)"><path fill="#554e6d" d="M 901.824219 0.140625 L 911.414062 0.140625 L 911.414062 9.730469 L 901.824219 9.730469 Z M 901.824219 0.140625 " fill-opacity="1" fill-rule="nonzero"/></g><path fill="#554e6d" d="M 662.125 48.082031 L 671.710938 48.082031 L 671.710938 57.667969 L 662.125 57.667969 Z M 662.125 48.082031 " fill-opacity="1" fill-rule="nonzero"/><path fill="#554e6d" d="M 805.945312 268.605469 L 815.53125 268.605469 L 815.53125 278.195312 L 805.945312 278.195312 Z M 805.945312 268.605469 " fill-opacity="1" fill-rule="nonzero"/><path fill="#554e6d" d="M 652.535156 393.25 L 662.125 393.25 L 662.125 402.839844 L 652.535156 402.839844 Z M 652.535156 393.25 " fill-opacity="1" fill-rule="nonzero"/><path fill="#554e6d" d="M 940.175781 469.957031 L 949.765625 469.957031 L 949.765625 479.542969 L 940.175781 479.542969 Z M 940.175781 469.957031 " fill-opacity="1" fill-rule="nonzero"/><path fill="#ffffff" d="M 652.535156 38.492188 L 662.125 38.492188 L 662.125 48.082031 L 652.535156 48.082031 Z M 652.535156 38.492188 " fill-opacity="1" fill-rule="nonzero"/><g clip-path="url(#9ee0018ae3)"><path fill="#ffffff" d="M 1016.882812 48.082031 L 1026.46875 48.082031 L 1026.46875 57.667969 L 1016.882812 57.667969 Z M 1016.882812 48.082031 " fill-opacity="1" fill-rule="nonzero"/></g><path fill="#ffffff" d="M 652.535156 268.605469 L 662.125 268.605469 L 662.125 278.195312 L 652.535156 278.195312 Z M 652.535156 268.605469 " fill-opacity="1" fill-rule="nonzero"/><path fill="#ffffff" d="M 738.828125 374.074219 L 748.417969 374.074219 L 748.417969 383.664062 L 738.828125 383.664062 Z M 738.828125 374.074219 " fill-opacity="1" fill-rule="nonzero"/><path fill="#ffffff" d="M 1007.292969 431.601562 L 1016.882812 431.601562 L 1016.882812 441.191406 L 1007.292969 441.191406 Z M 1007.292969 431.601562 " fill-opacity="1" fill-rule="nonzero"/><path fill="#ffffff" d="M 662.125 556.25 L 671.710938 556.25 L 671.710938 565.835938 L 662.125 565.835938 Z M 662.125 556.25 " fill-opacity="1" fill-rule="nonzero"/><path fill="#8a859b" d="M 1007.292969 57.667969 L 1016.882812 57.667969 L 1016.882812 67.257812 L 1007.292969 67.257812 Z M 1007.292969 57.667969 " fill-opacity="1" fill-rule="nonzero"/><g clip-path="url(#dbb9ac7a51)"><path fill="#8a859b" d="M 614.183594 143.960938 L 623.769531 143.960938 L 623.769531 153.550781 L 614.183594 153.550781 Z M 614.183594 143.960938 " fill-opacity="1" fill-rule="nonzero"/></g><path fill="#8a859b" d="M 968.941406 153.550781 L 978.53125 153.550781 L 978.53125 163.136719 L 968.941406 163.136719 Z M 968.941406 153.550781 " fill-opacity="1" fill-rule="nonzero"/><path fill="#8a859b" d="M 633.359375 345.3125 L 642.949219 345.3125 L 642.949219 354.898438 L 633.359375 354.898438 Z M 633.359375 345.3125 " fill-opacity="1" fill-rule="nonzero"/><path fill="#8a859b" d="M 988.117188 412.425781 L 997.707031 412.425781 L 997.707031 422.015625 L 988.117188 422.015625 Z M 988.117188 412.425781 " fill-opacity="1" fill-rule="nonzero"/><path fill="#8a859b" d="M 940.175781 546.660156 L 949.765625 546.660156 L 949.765625 556.25 L 940.175781 556.25 Z M 940.175781 546.660156 " fill-opacity="1" fill-rule="nonzero"/><path fill="#8a859b" d="M 642.949219 556.25 L 652.535156 556.25 L 652.535156 565.835938 L 642.949219 565.835938 Z M 642.949219 556.25 " fill-opacity="1" fill-rule="nonzero"/><g clip-path="url(#2977b1ad8c)"><path fill="#8a859b" d="M 853.886719 565.835938 L 863.472656 565.835938 L 863.472656 575.425781 L 853.886719 575.425781 Z M 853.886719 565.835938 " fill-opacity="1" fill-rule="nonzero"/></g><path fill="#bdbac6" d="M 796.355469 115.195312 L 805.945312 115.195312 L 805.945312 124.785156 L 796.355469 124.785156 Z M 796.355469 115.195312 " fill-opacity="1" fill-rule="nonzero"/><path fill="#bdbac6" d="M 863.472656 287.78125 L 873.0625 287.78125 L 873.0625 297.371094 L 863.472656 297.371094 Z M 863.472656 287.78125 " fill-opacity="1" fill-rule="nonzero"/><path fill="#bdbac6" d="M 949.765625 450.78125 L 959.351562 450.78125 L 959.351562 460.367188 L 949.765625 460.367188 Z M 949.765625 450.78125 " fill-opacity="1" fill-rule="nonzero"/><path fill="#bdbac6" d="M 834.707031 556.25 L 844.296875 556.25 L 844.296875 565.835938 L 834.707031 565.835938 Z M 834.707031 556.25 " fill-opacity="1" fill-rule="nonzero"/></g></g></g></g><g clip-path="url(#9c0bd25f26)"><path fill="#f4db29" d="M 118.054688 382.414062 L 118.054688 386.140625 L 114.339844 386.140625 L 114.339844 382.414062 L 118.054688 382.414062 " fill-opacity="1" fill-rule="nonzero"/></g><path fill="#fff9cf" d="M 114.339844 382.414062 L 114.339844 386.140625 L 110.628906 386.140625 L 110.628906 382.414062 L 114.339844 382.414062 " fill-opacity="1" fill-rule="nonzero"/><path fill="#fe9000" d="M 106.914062 382.414062 L 106.914062 386.140625 L 103.199219 386.140625 L 103.199219 382.414062 L 106.914062 382.414062 " fill-opacity="1" fill-rule="nonzero"/><path fill="#fe9000" d="M 103.199219 408.5 L 103.199219 412.226562 L 99.488281 412.226562 L 99.488281 408.5 L 103.199219 408.5 " fill-opacity="1" fill-rule="nonzero"/><path fill="#f4db29" d="M 103.199219 382.414062 L 103.199219 386.140625 L 99.488281 386.140625 L 99.488281 382.414062 L 103.199219 382.414062 " fill-opacity="1" fill-rule="nonzero"/><path fill="#fe9000" d="M 103.199219 356.328125 L 103.199219 360.058594 L 99.488281 360.058594 L 99.488281 356.328125 L 103.199219 356.328125 " fill-opacity="1" fill-rule="nonzero"/><path fill="#f4db29" d="M 99.488281 382.414062 L 99.488281 386.140625 L 95.773438 386.140625 L 95.773438 382.414062 L 99.488281 382.414062 " fill-opacity="1" fill-rule="nonzero"/><path fill="#f4db29" d="M 95.773438 401.050781 L 95.773438 404.773438 L 92.058594 404.773438 L 92.058594 401.050781 L 95.773438 401.050781 " fill-opacity="1" fill-rule="nonzero"/><path fill="#fe9000" d="M 95.773438 389.871094 L 95.773438 393.597656 L 92.058594 393.597656 L 92.058594 389.871094 L 95.773438 389.871094 " fill-opacity="1" fill-rule="nonzero"/><path fill="#f4db29" d="M 95.773438 382.414062 L 95.773438 386.140625 L 92.058594 386.140625 L 92.058594 382.414062 L 95.773438 382.414062 " fill-opacity="1" fill-rule="nonzero"/><path fill="#fe9000" d="M 95.773438 374.964844 L 95.773438 378.691406 L 92.058594 378.691406 L 92.058594 374.964844 L 95.773438 374.964844 " fill-opacity="1" fill-rule="nonzero"/><path fill="#f4db29" d="M 95.773438 363.785156 L 95.773438 367.511719 L 92.058594 367.511719 L 92.058594 363.785156 L 95.773438 363.785156 " fill-opacity="1" fill-rule="nonzero"/><path fill="#fff9cf" d="M 92.058594 397.324219 L 92.058594 401.050781 L 88.347656 401.050781 L 88.347656 397.324219 L 92.058594 397.324219 " fill-opacity="1" fill-rule="nonzero"/><path fill="#f4db29" d="M 92.058594 382.414062 L 92.058594 386.140625 L 88.347656 386.140625 L 88.347656 382.414062 L 92.058594 382.414062 " fill-opacity="1" fill-rule="nonzero"/><path fill="#fff9cf" d="M 92.058594 367.511719 L 92.058594 371.238281 L 88.347656 371.238281 L 88.347656 367.511719 L 92.058594 367.511719 " fill-opacity="1" fill-rule="nonzero"/><path fill="#fe9000" d="M 88.347656 382.414062 L 88.347656 386.140625 L 84.632812 386.140625 L 84.632812 382.414062 L 88.347656 382.414062 " fill-opacity="1" fill-rule="nonzero"/><path fill="#fe9000" d="M 84.632812 401.050781 L 84.632812 404.773438 L 80.917969 404.773438 L 80.917969 401.050781 L 84.632812 401.050781 " fill-opacity="1" fill-rule="nonzero"/><path fill="#fe9000" d="M 84.632812 389.871094 L 84.632812 393.597656 L 80.917969 393.597656 L 80.917969 389.871094 L 84.632812 389.871094 " fill-opacity="1" fill-rule="nonzero"/><path fill="#f4db29" d="M 84.632812 382.414062 L 84.632812 386.140625 L 80.917969 386.140625 L 80.917969 382.414062 L 84.632812 382.414062 " fill-opacity="1" fill-rule="nonzero"/><path fill="#fe9000" d="M 84.632812 374.964844 L 84.632812 378.691406 L 80.917969 378.691406 L 80.917969 374.964844 L 84.632812 374.964844 " fill-opacity="1" fill-rule="nonzero"/><path fill="#fe9000" d="M 84.632812 363.785156 L 84.632812 367.511719 L 80.917969 367.511719 L 80.917969 363.785156 L 84.632812 363.785156 " fill-opacity="1" fill-rule="nonzero"/><path fill="#f4db29" d="M 80.917969 386.140625 L 80.917969 389.871094 L 77.203125 389.871094 L 77.203125 386.140625 L 80.917969 386.140625 " fill-opacity="1" fill-rule="nonzero"/><path fill="#fff9cf" d="M 80.917969 382.414062 L 80.917969 386.140625 L 77.203125 386.140625 L 77.203125 382.414062 L 80.917969 382.414062 " fill-opacity="1" fill-rule="nonzero"/><path fill="#f4db29" d="M 80.917969 378.691406 L 80.917969 382.414062 L 77.203125 382.414062 L 77.203125 378.691406 L 80.917969 378.691406 " fill-opacity="1" fill-rule="nonzero"/><g clip-path="url(#609ef8f799)"><path fill="#fe9000" d="M 77.203125 468.125 L 77.203125 471.851562 L 73.492188 471.851562 L 73.492188 468.125 L 77.203125 468.125 " fill-opacity="1" fill-rule="nonzero"/></g><path fill="#fe9000" d="M 77.203125 460.671875 L 77.203125 464.398438 L 73.492188 464.398438 L 73.492188 460.671875 L 77.203125 460.671875 " fill-opacity="1" fill-rule="nonzero"/><path fill="#f4db29" d="M 77.203125 456.945312 L 77.203125 460.671875 L 73.492188 460.671875 L 73.492188 456.945312 L 77.203125 456.945312 " fill-opacity="1" fill-rule="nonzero"/><path fill="#fe9000" d="M 77.203125 449.492188 L 77.203125 453.21875 L 73.492188 453.21875 L 73.492188 449.492188 L 77.203125 449.492188 " fill-opacity="1" fill-rule="nonzero"/><path fill="#fe9000" d="M 77.203125 445.765625 L 77.203125 449.492188 L 73.492188 449.492188 L 73.492188 445.765625 L 77.203125 445.765625 " fill-opacity="1" fill-rule="nonzero"/><path fill="#f4db29" d="M 77.203125 442.039062 L 77.203125 445.765625 L 73.492188 445.765625 L 73.492188 442.039062 L 77.203125 442.039062 " fill-opacity="1" fill-rule="nonzero"/><path fill="#fe9000" d="M 77.203125 438.3125 L 77.203125 442.039062 L 73.492188 442.039062 L 73.492188 438.3125 L 77.203125 438.3125 " fill-opacity="1" fill-rule="nonzero"/><path fill="#f4db29" d="M 77.203125 434.585938 L 77.203125 438.3125 L 73.492188 438.3125 L 73.492188 434.585938 L 77.203125 434.585938 " fill-opacity="1" fill-rule="nonzero"/><path fill="#f4db29" d="M 77.203125 430.859375 L 77.203125 434.585938 L 73.492188 434.585938 L 73.492188 430.859375 L 77.203125 430.859375 " fill-opacity="1" fill-rule="nonzero"/><path fill="#f4db29" d="M 77.203125 423.410156 L 77.203125 427.132812 L 73.492188 427.132812 L 73.492188 423.410156 L 77.203125 423.410156 " fill-opacity="1" fill-rule="nonzero"/><path fill="#fff9cf" d="M 77.203125 419.679688 L 77.203125 423.410156 L 73.492188 423.410156 L 73.492188 419.679688 L 77.203125 419.679688 " fill-opacity="1" fill-rule="nonzero"/><path fill="#fe9000" d="M 77.203125 412.226562 L 77.203125 415.953125 L 73.492188 415.953125 L 73.492188 412.226562 L 77.203125 412.226562 " fill-opacity="1" fill-rule="nonzero"/><path fill="#f4db29" d="M 77.203125 408.5 L 77.203125 412.226562 L 73.492188 412.226562 L 73.492188 408.5 L 77.203125 408.5 " fill-opacity="1" fill-rule="nonzero"/><path fill="#f4db29" d="M 77.203125 404.773438 L 77.203125 408.5 L 73.492188 408.5 L 73.492188 404.773438 L 77.203125 404.773438 " fill-opacity="1" fill-rule="nonzero"/><path fill="#f4db29" d="M 77.203125 401.050781 L 77.203125 404.773438 L 73.492188 404.773438 L 73.492188 401.050781 L 77.203125 401.050781 " fill-opacity="1" fill-rule="nonzero"/><path fill="#f4db29" d="M 77.203125 397.324219 L 77.203125 401.050781 L 73.492188 401.050781 L 73.492188 397.324219 L 77.203125 397.324219 " fill-opacity="1" fill-rule="nonzero"/><path fill="#fe9000" d="M 77.203125 393.597656 L 77.203125 397.324219 L 73.492188 397.324219 L 73.492188 393.597656 L 77.203125 393.597656 " fill-opacity="1" fill-rule="nonzero"/><path fill="#f4db29" d="M 77.203125 389.871094 L 77.203125 393.597656 L 73.492188 393.597656 L 73.492188 389.871094 L 77.203125 389.871094 " fill-opacity="1" fill-rule="nonzero"/><path fill="#fff9cf" d="M 77.203125 386.140625 L 77.203125 389.871094 L 73.492188 389.871094 L 73.492188 386.140625 L 77.203125 386.140625 " fill-opacity="1" fill-rule="nonzero"/><path fill="#fff9cf" d="M 77.203125 382.414062 L 77.203125 386.140625 L 73.492188 386.140625 L 73.492188 382.414062 L 77.203125 382.414062 " fill-opacity="1" fill-rule="nonzero"/><path fill="#fff9cf" d="M 77.203125 378.691406 L 77.203125 382.414062 L 73.492188 382.414062 L 73.492188 378.691406 L 77.203125 378.691406 " fill-opacity="1" fill-rule="nonzero"/><path fill="#f4db29" d="M 77.203125 374.964844 L 77.203125 378.691406 L 73.492188 378.691406 L 73.492188 374.964844 L 77.203125 374.964844 " fill-opacity="1" fill-rule="nonzero"/><path fill="#fe9000" d="M 77.203125 371.238281 L 77.203125 374.964844 L 73.492188 374.964844 L 73.492188 371.238281 L 77.203125 371.238281 " fill-opacity="1" fill-rule="nonzero"/><path fill="#f4db29" d="M 77.203125 367.511719 L 77.203125 371.238281 L 73.492188 371.238281 L 73.492188 367.511719 L 77.203125 367.511719 " fill-opacity="1" fill-rule="nonzero"/><path fill="#f4db29" d="M 77.203125 363.785156 L 77.203125 367.511719 L 73.492188 367.511719 L 73.492188 363.785156 L 77.203125 363.785156 " fill-opacity="1" fill-rule="nonzero"/><path fill="#f4db29" d="M 77.203125 360.058594 L 77.203125 363.785156 L 73.492188 363.785156 L 73.492188 360.058594 L 77.203125 360.058594 " fill-opacity="1" fill-rule="nonzero"/><path fill="#f4db29" d="M 77.203125 356.328125 L 77.203125 360.058594 L 73.492188 360.058594 L 73.492188 356.328125 L 77.203125 356.328125 " fill-opacity="1" fill-rule="nonzero"/><path fill="#fe9000" d="M 77.203125 352.605469 L 77.203125 356.328125 L 73.492188 356.328125 L 73.492188 352.605469 L 77.203125 352.605469 " fill-opacity="1" fill-rule="nonzero"/><path fill="#fff9cf" d="M 77.203125 345.152344 L 77.203125 348.878906 L 73.492188 348.878906 L 73.492188 345.152344 L 77.203125 345.152344 " fill-opacity="1" fill-rule="nonzero"/><g clip-path="url(#a5a2dc2c4b)"><path fill="#f4db29" d="M 77.203125 341.425781 L 77.203125 345.152344 L 73.492188 345.152344 L 73.492188 341.425781 L 77.203125 341.425781 " fill-opacity="1" fill-rule="nonzero"/></g><path fill="#f4db29" d="M 73.492188 386.140625 L 73.492188 389.871094 L 69.777344 389.871094 L 69.777344 386.140625 L 73.492188 386.140625 " fill-opacity="1" fill-rule="nonzero"/><path fill="#fff9cf" d="M 73.492188 382.414062 L 73.492188 386.140625 L 69.777344 386.140625 L 69.777344 382.414062 L 73.492188 382.414062 " fill-opacity="1" fill-rule="nonzero"/><path fill="#f4db29" d="M 73.492188 378.691406 L 73.492188 382.414062 L 69.777344 382.414062 L 69.777344 378.691406 L 73.492188 378.691406 " fill-opacity="1" fill-rule="nonzero"/><path fill="#fe9000" d="M 69.777344 401.050781 L 69.777344 404.773438 L 66.0625 404.773438 L 66.0625 401.050781 L 69.777344 401.050781 " fill-opacity="1" fill-rule="nonzero"/><path fill="#fe9000" d="M 69.777344 389.871094 L 69.777344 393.597656 L 66.0625 393.597656 L 66.0625 389.871094 L 69.777344 389.871094 " fill-opacity="1" fill-rule="nonzero"/><path fill="#f4db29" d="M 69.777344 382.414062 L 69.777344 386.140625 L 66.0625 386.140625 L 66.0625 382.414062 L 69.777344 382.414062 " fill-opacity="1" fill-rule="nonzero"/><path fill="#fe9000" d="M 69.777344 374.964844 L 69.777344 378.691406 L 66.0625 378.691406 L 66.0625 374.964844 L 69.777344 374.964844 " fill-opacity="1" fill-rule="nonzero"/><path fill="#fe9000" d="M 69.777344 363.785156 L 69.777344 367.511719 L 66.0625 367.511719 L 66.0625 363.785156 L 69.777344 363.785156 " fill-opacity="1" fill-rule="nonzero"/><path fill="#fe9000" d="M 66.0625 382.414062 L 66.0625 386.140625 L 62.351562 386.140625 L 62.351562 382.414062 L 66.0625 382.414062 " fill-opacity="1" fill-rule="nonzero"/><path fill="#fff9cf" d="M 62.351562 397.324219 L 62.351562 401.050781 L 58.636719 401.050781 L 58.636719 397.324219 L 62.351562 397.324219 " fill-opacity="1" fill-rule="nonzero"/><path fill="#f4db29" d="M 62.351562 382.414062 L 62.351562 386.140625 L 58.636719 386.140625 L 58.636719 382.414062 L 62.351562 382.414062 " fill-opacity="1" fill-rule="nonzero"/><path fill="#fff9cf" d="M 62.351562 367.511719 L 62.351562 371.238281 L 58.636719 371.238281 L 58.636719 367.511719 L 62.351562 367.511719 " fill-opacity="1" fill-rule="nonzero"/><path fill="#f4db29" d="M 58.636719 401.050781 L 58.636719 404.773438 L 54.921875 404.773438 L 54.921875 401.050781 L 58.636719 401.050781 " fill-opacity="1" fill-rule="nonzero"/><path fill="#fe9000" d="M 58.636719 389.871094 L 58.636719 393.597656 L 54.921875 393.597656 L 54.921875 389.871094 L 58.636719 389.871094 " fill-opacity="1" fill-rule="nonzero"/><path fill="#f4db29" d="M 58.636719 382.414062 L 58.636719 386.140625 L 54.921875 386.140625 L 54.921875 382.414062 L 58.636719 382.414062 " fill-opacity="1" fill-rule="nonzero"/><path fill="#fe9000" d="M 58.636719 374.964844 L 58.636719 378.691406 L 54.921875 378.691406 L 54.921875 374.964844 L 58.636719 374.964844 " fill-opacity="1" fill-rule="nonzero"/><path fill="#f4db29" d="M 58.636719 363.785156 L 58.636719 367.511719 L 54.921875 367.511719 L 54.921875 363.785156 L 58.636719 363.785156 " fill-opacity="1" fill-rule="nonzero"/><path fill="#f4db29" d="M 54.921875 382.414062 L 54.921875 386.140625 L 51.210938 386.140625 L 51.210938 382.414062 L 54.921875 382.414062 " fill-opacity="1" fill-rule="nonzero"/><path fill="#fe9000" d="M 51.210938 408.5 L 51.210938 412.226562 L 47.496094 412.226562 L 47.496094 408.5 L 51.210938 408.5 " fill-opacity="1" fill-rule="nonzero"/><path fill="#f4db29" d="M 51.210938 382.414062 L 51.210938 386.140625 L 47.496094 386.140625 L 47.496094 382.414062 L 51.210938 382.414062 " fill-opacity="1" fill-rule="nonzero"/><path fill="#fe9000" d="M 51.210938 356.328125 L 51.210938 360.058594 L 47.496094 360.058594 L 47.496094 356.328125 L 51.210938 356.328125 " fill-opacity="1" fill-rule="nonzero"/><path fill="#fe9000" d="M 47.496094 382.414062 L 47.496094 386.140625 L 43.78125 386.140625 L 43.78125 382.414062 L 47.496094 382.414062 " fill-opacity="1" fill-rule="nonzero"/><path fill="#fff9cf" d="M 40.070312 382.414062 L 40.070312 386.140625 L 36.355469 386.140625 L 36.355469 382.414062 L 40.070312 382.414062 " fill-opacity="1" fill-rule="nonzero"/><g clip-path="url(#bbcff1b6f1)"><path fill="#f4db29" d="M 36.355469 382.414062 L 36.355469 386.140625 L 32.640625 386.140625 L 32.640625 382.414062 L 36.355469 382.414062 " fill-opacity="1" fill-rule="nonzero"/></g><g clip-path="url(#2e5ceae8fa)"><path fill="#f4db29" d="M 966.207031 88.929688 L 966.207031 93.726562 L 961.417969 93.726562 L 961.417969 88.929688 L 966.207031 88.929688 " fill-opacity="1" fill-rule="nonzero"/></g><path fill="#fff9cf" d="M 961.417969 88.929688 L 961.417969 93.726562 L 956.628906 93.726562 L 956.628906 88.929688 L 961.417969 88.929688 " fill-opacity="1" fill-rule="nonzero"/><path fill="#fe9000" d="M 951.839844 88.929688 L 951.839844 93.726562 L 947.054688 93.726562 L 947.054688 88.929688 L 951.839844 88.929688 " fill-opacity="1" fill-rule="nonzero"/><path fill="#fe9000" d="M 947.054688 122.511719 L 947.054688 127.308594 L 942.265625 127.308594 L 942.265625 122.511719 L 947.054688 122.511719 " fill-opacity="1" fill-rule="nonzero"/><path fill="#f4db29" d="M 947.054688 88.929688 L 947.054688 93.726562 L 942.265625 93.726562 L 942.265625 88.929688 L 947.054688 88.929688 " fill-opacity="1" fill-rule="nonzero"/><path fill="#fe9000" d="M 947.054688 55.347656 L 947.054688 60.148438 L 942.265625 60.148438 L 942.265625 55.347656 L 947.054688 55.347656 " fill-opacity="1" fill-rule="nonzero"/><path fill="#f4db29" d="M 942.265625 88.929688 L 942.265625 93.726562 L 937.476562 93.726562 L 937.476562 88.929688 L 942.265625 88.929688 " fill-opacity="1" fill-rule="nonzero"/><path fill="#f4db29" d="M 937.476562 112.917969 L 937.476562 117.714844 L 932.6875 117.714844 L 932.6875 112.917969 L 937.476562 112.917969 " fill-opacity="1" fill-rule="nonzero"/><path fill="#fe9000" d="M 937.476562 98.527344 L 937.476562 103.324219 L 932.6875 103.324219 L 932.6875 98.527344 L 937.476562 98.527344 " fill-opacity="1" fill-rule="nonzero"/><path fill="#f4db29" d="M 937.476562 88.929688 L 937.476562 93.726562 L 932.6875 93.726562 L 932.6875 88.929688 L 937.476562 88.929688 " fill-opacity="1" fill-rule="nonzero"/><path fill="#fe9000" d="M 937.476562 79.335938 L 937.476562 84.132812 L 932.6875 84.132812 L 932.6875 79.335938 L 937.476562 79.335938 " fill-opacity="1" fill-rule="nonzero"/><path fill="#f4db29" d="M 937.476562 64.945312 L 937.476562 69.742188 L 932.6875 69.742188 L 932.6875 64.945312 L 937.476562 64.945312 " fill-opacity="1" fill-rule="nonzero"/><path fill="#fff9cf" d="M 932.6875 108.121094 L 932.6875 112.917969 L 927.898438 112.917969 L 927.898438 108.121094 L 932.6875 108.121094 " fill-opacity="1" fill-rule="nonzero"/><path fill="#f4db29" d="M 932.6875 88.929688 L 932.6875 93.726562 L 927.898438 93.726562 L 927.898438 88.929688 L 932.6875 88.929688 " fill-opacity="1" fill-rule="nonzero"/><path fill="#fff9cf" d="M 932.6875 69.742188 L 932.6875 74.539062 L 927.898438 74.539062 L 927.898438 69.742188 L 932.6875 69.742188 " fill-opacity="1" fill-rule="nonzero"/><path fill="#fe9000" d="M 927.898438 88.929688 L 927.898438 93.726562 L 923.113281 93.726562 L 923.113281 88.929688 L 927.898438 88.929688 " fill-opacity="1" fill-rule="nonzero"/><path fill="#fe9000" d="M 923.113281 112.917969 L 923.113281 117.714844 L 918.324219 117.714844 L 918.324219 112.917969 L 923.113281 112.917969 " fill-opacity="1" fill-rule="nonzero"/><path fill="#fe9000" d="M 923.113281 98.527344 L 923.113281 103.324219 L 918.324219 103.324219 L 918.324219 98.527344 L 923.113281 98.527344 " fill-opacity="1" fill-rule="nonzero"/><path fill="#f4db29" d="M 923.113281 88.929688 L 923.113281 93.726562 L 918.324219 93.726562 L 918.324219 88.929688 L 923.113281 88.929688 " fill-opacity="1" fill-rule="nonzero"/><path fill="#fe9000" d="M 923.113281 79.335938 L 923.113281 84.132812 L 918.324219 84.132812 L 918.324219 79.335938 L 923.113281 79.335938 " fill-opacity="1" fill-rule="nonzero"/><path fill="#fe9000" d="M 923.113281 64.945312 L 923.113281 69.742188 L 918.324219 69.742188 L 918.324219 64.945312 L 923.113281 64.945312 " fill-opacity="1" fill-rule="nonzero"/><path fill="#f4db29" d="M 918.324219 93.726562 L 918.324219 98.527344 L 913.535156 98.527344 L 913.535156 93.726562 L 918.324219 93.726562 " fill-opacity="1" fill-rule="nonzero"/><path fill="#fff9cf" d="M 918.324219 88.929688 L 918.324219 93.726562 L 913.535156 93.726562 L 913.535156 88.929688 L 918.324219 88.929688 " fill-opacity="1" fill-rule="nonzero"/><path fill="#f4db29" d="M 918.324219 84.132812 L 918.324219 88.929688 L 913.535156 88.929688 L 913.535156 84.132812 L 918.324219 84.132812 " fill-opacity="1" fill-rule="nonzero"/><g clip-path="url(#b76e248b24)"><path fill="#fe9000" d="M 913.535156 199.269531 L 913.535156 204.070312 L 908.746094 204.070312 L 908.746094 199.269531 L 913.535156 199.269531 " fill-opacity="1" fill-rule="nonzero"/></g><path fill="#fe9000" d="M 913.535156 189.675781 L 913.535156 194.472656 L 908.746094 194.472656 L 908.746094 189.675781 L 913.535156 189.675781 " fill-opacity="1" fill-rule="nonzero"/><path fill="#f4db29" d="M 913.535156 184.878906 L 913.535156 189.675781 L 908.746094 189.675781 L 908.746094 184.878906 L 913.535156 184.878906 " fill-opacity="1" fill-rule="nonzero"/><path fill="#fe9000" d="M 913.535156 175.285156 L 913.535156 180.082031 L 908.746094 180.082031 L 908.746094 175.285156 L 913.535156 175.285156 " fill-opacity="1" fill-rule="nonzero"/><path fill="#fe9000" d="M 913.535156 170.488281 L 913.535156 175.285156 L 908.746094 175.285156 L 908.746094 170.488281 L 913.535156 170.488281 " fill-opacity="1" fill-rule="nonzero"/><path fill="#f4db29" d="M 913.535156 165.6875 L 913.535156 170.488281 L 908.746094 170.488281 L 908.746094 165.6875 L 913.535156 165.6875 " fill-opacity="1" fill-rule="nonzero"/><path fill="#fe9000" d="M 913.535156 160.890625 L 913.535156 165.6875 L 908.746094 165.6875 L 908.746094 160.890625 L 913.535156 160.890625 " fill-opacity="1" fill-rule="nonzero"/><path fill="#f4db29" d="M 913.535156 156.09375 L 913.535156 160.890625 L 908.746094 160.890625 L 908.746094 156.09375 L 913.535156 156.09375 " fill-opacity="1" fill-rule="nonzero"/><path fill="#f4db29" d="M 913.535156 151.296875 L 913.535156 156.09375 L 908.746094 156.09375 L 908.746094 151.296875 L 913.535156 151.296875 " fill-opacity="1" fill-rule="nonzero"/><path fill="#f4db29" d="M 913.535156 141.703125 L 913.535156 146.5 L 908.746094 146.5 L 908.746094 141.703125 L 913.535156 141.703125 " fill-opacity="1" fill-rule="nonzero"/><path fill="#fff9cf" d="M 913.535156 136.90625 L 913.535156 141.703125 L 908.746094 141.703125 L 908.746094 136.90625 L 913.535156 136.90625 " fill-opacity="1" fill-rule="nonzero"/><path fill="#fe9000" d="M 913.535156 127.308594 L 913.535156 132.109375 L 908.746094 132.109375 L 908.746094 127.308594 L 913.535156 127.308594 " fill-opacity="1" fill-rule="nonzero"/><path fill="#f4db29" d="M 913.535156 122.511719 L 913.535156 127.308594 L 908.746094 127.308594 L 908.746094 122.511719 L 913.535156 122.511719 " fill-opacity="1" fill-rule="nonzero"/><path fill="#f4db29" d="M 913.535156 117.714844 L 913.535156 122.511719 L 908.746094 122.511719 L 908.746094 117.714844 L 913.535156 117.714844 " fill-opacity="1" fill-rule="nonzero"/><path fill="#f4db29" d="M 913.535156 112.917969 L 913.535156 117.714844 L 908.746094 117.714844 L 908.746094 112.917969 L 913.535156 112.917969 " fill-opacity="1" fill-rule="nonzero"/><path fill="#f4db29" d="M 913.535156 108.121094 L 913.535156 112.917969 L 908.746094 112.917969 L 908.746094 108.121094 L 913.535156 108.121094 " fill-opacity="1" fill-rule="nonzero"/><path fill="#fe9000" d="M 913.535156 103.324219 L 913.535156 108.121094 L 908.746094 108.121094 L 908.746094 103.324219 L 913.535156 103.324219 " fill-opacity="1" fill-rule="nonzero"/><path fill="#f4db29" d="M 913.535156 98.527344 L 913.535156 103.324219 L 908.746094 103.324219 L 908.746094 98.527344 L 913.535156 98.527344 " fill-opacity="1" fill-rule="nonzero"/><path fill="#fff9cf" d="M 913.535156 93.726562 L 913.535156 98.527344 L 908.746094 98.527344 L 908.746094 93.726562 L 913.535156 93.726562 " fill-opacity="1" fill-rule="nonzero"/><path fill="#fff9cf" d="M 913.535156 88.929688 L 913.535156 93.726562 L 908.746094 93.726562 L 908.746094 88.929688 L 913.535156 88.929688 " fill-opacity="1" fill-rule="nonzero"/><path fill="#fff9cf" d="M 913.535156 84.132812 L 913.535156 88.929688 L 908.746094 88.929688 L 908.746094 84.132812 L 913.535156 84.132812 " fill-opacity="1" fill-rule="nonzero"/><path fill="#f4db29" d="M 913.535156 79.335938 L 913.535156 84.132812 L 908.746094 84.132812 L 908.746094 79.335938 L 913.535156 79.335938 " fill-opacity="1" fill-rule="nonzero"/><path fill="#fe9000" d="M 913.535156 74.539062 L 913.535156 79.335938 L 908.746094 79.335938 L 908.746094 74.539062 L 913.535156 74.539062 " fill-opacity="1" fill-rule="nonzero"/><path fill="#f4db29" d="M 913.535156 69.742188 L 913.535156 74.539062 L 908.746094 74.539062 L 908.746094 69.742188 L 913.535156 69.742188 " fill-opacity="1" fill-rule="nonzero"/><path fill="#f4db29" d="M 913.535156 64.945312 L 913.535156 69.742188 L 908.746094 69.742188 L 908.746094 64.945312 L 913.535156 64.945312 " fill-opacity="1" fill-rule="nonzero"/><path fill="#f4db29" d="M 913.535156 60.148438 L 913.535156 64.945312 L 908.746094 64.945312 L 908.746094 60.148438 L 913.535156 60.148438 " fill-opacity="1" fill-rule="nonzero"/><path fill="#f4db29" d="M 913.535156 55.347656 L 913.535156 60.148438 L 908.746094 60.148438 L 908.746094 55.347656 L 913.535156 55.347656 " fill-opacity="1" fill-rule="nonzero"/><path fill="#fe9000" d="M 913.535156 50.550781 L 913.535156 55.347656 L 908.746094 55.347656 L 908.746094 50.550781 L 913.535156 50.550781 " fill-opacity="1" fill-rule="nonzero"/><path fill="#fff9cf" d="M 913.535156 40.957031 L 913.535156 45.757812 L 908.746094 45.757812 L 908.746094 40.957031 L 913.535156 40.957031 " fill-opacity="1" fill-rule="nonzero"/><g clip-path="url(#28a3b57f88)"><path fill="#f4db29" d="M 913.535156 36.160156 L 913.535156 40.957031 L 908.746094 40.957031 L 908.746094 36.160156 L 913.535156 36.160156 " fill-opacity="1" fill-rule="nonzero"/></g><path fill="#f4db29" d="M 908.746094 93.726562 L 908.746094 98.527344 L 903.960938 98.527344 L 903.960938 93.726562 L 908.746094 93.726562 " fill-opacity="1" fill-rule="nonzero"/><path fill="#fff9cf" d="M 908.746094 88.929688 L 908.746094 93.726562 L 903.960938 93.726562 L 903.960938 88.929688 L 908.746094 88.929688 " fill-opacity="1" fill-rule="nonzero"/><path fill="#f4db29" d="M 908.746094 84.132812 L 908.746094 88.929688 L 903.960938 88.929688 L 903.960938 84.132812 L 908.746094 84.132812 " fill-opacity="1" fill-rule="nonzero"/><path fill="#fe9000" d="M 903.960938 112.917969 L 903.960938 117.714844 L 899.171875 117.714844 L 899.171875 112.917969 L 903.960938 112.917969 " fill-opacity="1" fill-rule="nonzero"/><path fill="#fe9000" d="M 903.960938 98.527344 L 903.960938 103.324219 L 899.171875 103.324219 L 899.171875 98.527344 L 903.960938 98.527344 " fill-opacity="1" fill-rule="nonzero"/><path fill="#f4db29" d="M 903.960938 88.929688 L 903.960938 93.726562 L 899.171875 93.726562 L 899.171875 88.929688 L 903.960938 88.929688 " fill-opacity="1" fill-rule="nonzero"/><path fill="#fe9000" d="M 903.960938 79.335938 L 903.960938 84.132812 L 899.171875 84.132812 L 899.171875 79.335938 L 903.960938 79.335938 " fill-opacity="1" fill-rule="nonzero"/><path fill="#fe9000" d="M 903.960938 64.945312 L 903.960938 69.742188 L 899.171875 69.742188 L 899.171875 64.945312 L 903.960938 64.945312 " fill-opacity="1" fill-rule="nonzero"/><path fill="#fe9000" d="M 899.171875 88.929688 L 899.171875 93.726562 L 894.382812 93.726562 L 894.382812 88.929688 L 899.171875 88.929688 " fill-opacity="1" fill-rule="nonzero"/><path fill="#fff9cf" d="M 894.382812 108.121094 L 894.382812 112.917969 L 889.59375 112.917969 L 889.59375 108.121094 L 894.382812 108.121094 " fill-opacity="1" fill-rule="nonzero"/><path fill="#f4db29" d="M 894.382812 88.929688 L 894.382812 93.726562 L 889.59375 93.726562 L 889.59375 88.929688 L 894.382812 88.929688 " fill-opacity="1" fill-rule="nonzero"/><path fill="#fff9cf" d="M 894.382812 69.742188 L 894.382812 74.539062 L 889.59375 74.539062 L 889.59375 69.742188 L 894.382812 69.742188 " fill-opacity="1" fill-rule="nonzero"/><path fill="#f4db29" d="M 889.59375 112.917969 L 889.59375 117.714844 L 884.804688 117.714844 L 884.804688 112.917969 L 889.59375 112.917969 " fill-opacity="1" fill-rule="nonzero"/><path fill="#fe9000" d="M 889.59375 98.527344 L 889.59375 103.324219 L 884.804688 103.324219 L 884.804688 98.527344 L 889.59375 98.527344 " fill-opacity="1" fill-rule="nonzero"/><path fill="#f4db29" d="M 889.59375 88.929688 L 889.59375 93.726562 L 884.804688 93.726562 L 884.804688 88.929688 L 889.59375 88.929688 " fill-opacity="1" fill-rule="nonzero"/><path fill="#fe9000" d="M 889.59375 79.335938 L 889.59375 84.132812 L 884.804688 84.132812 L 884.804688 79.335938 L 889.59375 79.335938 " fill-opacity="1" fill-rule="nonzero"/><path fill="#f4db29" d="M 889.59375 64.945312 L 889.59375 69.742188 L 884.804688 69.742188 L 884.804688 64.945312 L 889.59375 64.945312 " fill-opacity="1" fill-rule="nonzero"/><path fill="#f4db29" d="M 884.804688 88.929688 L 884.804688 93.726562 L 880.019531 93.726562 L 880.019531 88.929688 L 884.804688 88.929688 " fill-opacity="1" fill-rule="nonzero"/><path fill="#fe9000" d="M 880.019531 122.511719 L 880.019531 127.308594 L 875.230469 127.308594 L 875.230469 122.511719 L 880.019531 122.511719 " fill-opacity="1" fill-rule="nonzero"/><path fill="#f4db29" d="M 880.019531 88.929688 L 880.019531 93.726562 L 875.230469 93.726562 L 875.230469 88.929688 L 880.019531 88.929688 " fill-opacity="1" fill-rule="nonzero"/><path fill="#fe9000" d="M 880.019531 55.347656 L 880.019531 60.148438 L 875.230469 60.148438 L 875.230469 55.347656 L 880.019531 55.347656 " fill-opacity="1" fill-rule="nonzero"/><path fill="#fe9000" d="M 875.230469 88.929688 L 875.230469 93.726562 L 870.441406 93.726562 L 870.441406 88.929688 L 875.230469 88.929688 " fill-opacity="1" fill-rule="nonzero"/><path fill="#fff9cf" d="M 865.652344 88.929688 L 865.652344 93.726562 L 860.863281 93.726562 L 860.863281 88.929688 L 865.652344 88.929688 " fill-opacity="1" fill-rule="nonzero"/><g clip-path="url(#84799a6c27)"><path fill="#f4db29" d="M 860.863281 88.929688 L 860.863281 93.726562 L 856.078125 93.726562 L 856.078125 88.929688 L 860.863281 88.929688 " fill-opacity="1" fill-rule="nonzero"/></g><g clip-path="url(#0268d46e9b)"><path fill="#f4db29" d="M 654.804688 454.753906 L 654.804688 457.410156 L 652.167969 457.410156 L 652.167969 454.753906 L 654.804688 454.753906 " fill-opacity="1" fill-rule="nonzero"/></g><path fill="#fff9cf" d="M 652.167969 454.753906 L 652.167969 457.410156 L 649.527344 457.410156 L 649.527344 454.753906 L 652.167969 454.753906 " fill-opacity="1" fill-rule="nonzero"/><path fill="#fe9000" d="M 646.890625 454.753906 L 646.890625 457.410156 L 644.25 457.410156 L 644.25 454.753906 L 646.890625 454.753906 " fill-opacity="1" fill-rule="nonzero"/><path fill="#fe9000" d="M 644.25 473.34375 L 644.25 476 L 641.613281 476 L 641.613281 473.34375 L 644.25 473.34375 " fill-opacity="1" fill-rule="nonzero"/><path fill="#f4db29" d="M 644.25 454.753906 L 644.25 457.410156 L 641.613281 457.410156 L 641.613281 454.753906 L 644.25 454.753906 " fill-opacity="1" fill-rule="nonzero"/><path fill="#fe9000" d="M 644.25 436.164062 L 644.25 438.820312 L 641.613281 438.820312 L 641.613281 436.164062 L 644.25 436.164062 " fill-opacity="1" fill-rule="nonzero"/><path fill="#f4db29" d="M 641.613281 454.753906 L 641.613281 457.410156 L 638.976562 457.410156 L 638.976562 454.753906 L 641.613281 454.753906 " fill-opacity="1" fill-rule="nonzero"/><path fill="#f4db29" d="M 638.976562 468.03125 L 638.976562 470.6875 L 636.335938 470.6875 L 636.335938 468.03125 L 638.976562 468.03125 " fill-opacity="1" fill-rule="nonzero"/><path fill="#fe9000" d="M 638.976562 460.0625 L 638.976562 462.71875 L 636.335938 462.71875 L 636.335938 460.0625 L 638.976562 460.0625 " fill-opacity="1" fill-rule="nonzero"/><path fill="#f4db29" d="M 638.976562 454.753906 L 638.976562 457.410156 L 636.335938 457.410156 L 636.335938 454.753906 L 638.976562 454.753906 " fill-opacity="1" fill-rule="nonzero"/><path fill="#fe9000" d="M 638.976562 449.441406 L 638.976562 452.097656 L 636.335938 452.097656 L 636.335938 449.441406 L 638.976562 449.441406 " fill-opacity="1" fill-rule="nonzero"/><path fill="#f4db29" d="M 638.976562 441.472656 L 638.976562 444.128906 L 636.335938 444.128906 L 636.335938 441.472656 L 638.976562 441.472656 " fill-opacity="1" fill-rule="nonzero"/><path fill="#fff9cf" d="M 636.335938 465.375 L 636.335938 468.03125 L 633.699219 468.03125 L 633.699219 465.375 L 636.335938 465.375 " fill-opacity="1" fill-rule="nonzero"/><path fill="#f4db29" d="M 636.335938 454.753906 L 636.335938 457.410156 L 633.699219 457.410156 L 633.699219 454.753906 L 636.335938 454.753906 " fill-opacity="1" fill-rule="nonzero"/><path fill="#fff9cf" d="M 636.335938 444.128906 L 636.335938 446.785156 L 633.699219 446.785156 L 633.699219 444.128906 L 636.335938 444.128906 " fill-opacity="1" fill-rule="nonzero"/><path fill="#fe9000" d="M 633.699219 454.753906 L 633.699219 457.410156 L 631.058594 457.410156 L 631.058594 454.753906 L 633.699219 454.753906 " fill-opacity="1" fill-rule="nonzero"/><path fill="#fe9000" d="M 631.058594 468.03125 L 631.058594 470.6875 L 628.421875 470.6875 L 628.421875 468.03125 L 631.058594 468.03125 " fill-opacity="1" fill-rule="nonzero"/><path fill="#fe9000" d="M 631.058594 460.0625 L 631.058594 462.71875 L 628.421875 462.71875 L 628.421875 460.0625 L 631.058594 460.0625 " fill-opacity="1" fill-rule="nonzero"/><path fill="#f4db29" d="M 631.058594 454.753906 L 631.058594 457.410156 L 628.421875 457.410156 L 628.421875 454.753906 L 631.058594 454.753906 " fill-opacity="1" fill-rule="nonzero"/><path fill="#fe9000" d="M 631.058594 449.441406 L 631.058594 452.097656 L 628.421875 452.097656 L 628.421875 449.441406 L 631.058594 449.441406 " fill-opacity="1" fill-rule="nonzero"/><path fill="#fe9000" d="M 631.058594 441.472656 L 631.058594 444.128906 L 628.421875 444.128906 L 628.421875 441.472656 L 631.058594 441.472656 " fill-opacity="1" fill-rule="nonzero"/><path fill="#f4db29" d="M 628.421875 457.410156 L 628.421875 460.0625 L 625.78125 460.0625 L 625.78125 457.410156 L 628.421875 457.410156 " fill-opacity="1" fill-rule="nonzero"/><path fill="#fff9cf" d="M 628.421875 454.753906 L 628.421875 457.410156 L 625.78125 457.410156 L 625.78125 454.753906 L 628.421875 454.753906 " fill-opacity="1" fill-rule="nonzero"/><path fill="#f4db29" d="M 628.421875 452.097656 L 628.421875 454.753906 L 625.78125 454.753906 L 625.78125 452.097656 L 628.421875 452.097656 " fill-opacity="1" fill-rule="nonzero"/><g clip-path="url(#04f479b2ab)"><path fill="#fe9000" d="M 625.78125 515.835938 L 625.78125 518.488281 L 623.144531 518.488281 L 623.144531 515.835938 L 625.78125 515.835938 " fill-opacity="1" fill-rule="nonzero"/></g><path fill="#fe9000" d="M 625.78125 510.523438 L 625.78125 513.179688 L 623.144531 513.179688 L 623.144531 510.523438 L 625.78125 510.523438 " fill-opacity="1" fill-rule="nonzero"/><path fill="#f4db29" d="M 625.78125 507.867188 L 625.78125 510.523438 L 623.144531 510.523438 L 623.144531 507.867188 L 625.78125 507.867188 " fill-opacity="1" fill-rule="nonzero"/><path fill="#fe9000" d="M 625.78125 502.554688 L 625.78125 505.210938 L 623.144531 505.210938 L 623.144531 502.554688 L 625.78125 502.554688 " fill-opacity="1" fill-rule="nonzero"/><path fill="#fe9000" d="M 625.78125 499.898438 L 625.78125 502.554688 L 623.144531 502.554688 L 623.144531 499.898438 L 625.78125 499.898438 " fill-opacity="1" fill-rule="nonzero"/><path fill="#f4db29" d="M 625.78125 497.246094 L 625.78125 499.898438 L 623.144531 499.898438 L 623.144531 497.246094 L 625.78125 497.246094 " fill-opacity="1" fill-rule="nonzero"/><path fill="#fe9000" d="M 625.78125 494.589844 L 625.78125 497.246094 L 623.144531 497.246094 L 623.144531 494.589844 L 625.78125 494.589844 " fill-opacity="1" fill-rule="nonzero"/><path fill="#f4db29" d="M 625.78125 491.933594 L 625.78125 494.589844 L 623.144531 494.589844 L 623.144531 491.933594 L 625.78125 491.933594 " fill-opacity="1" fill-rule="nonzero"/><path fill="#f4db29" d="M 625.78125 489.277344 L 625.78125 491.933594 L 623.144531 491.933594 L 623.144531 489.277344 L 625.78125 489.277344 " fill-opacity="1" fill-rule="nonzero"/><path fill="#f4db29" d="M 625.78125 483.964844 L 625.78125 486.621094 L 623.144531 486.621094 L 623.144531 483.964844 L 625.78125 483.964844 " fill-opacity="1" fill-rule="nonzero"/><path fill="#fff9cf" d="M 625.78125 481.308594 L 625.78125 483.964844 L 623.144531 483.964844 L 623.144531 481.308594 L 625.78125 481.308594 " fill-opacity="1" fill-rule="nonzero"/><path fill="#fe9000" d="M 625.78125 476 L 625.78125 478.65625 L 623.144531 478.65625 L 623.144531 476 L 625.78125 476 " fill-opacity="1" fill-rule="nonzero"/><path fill="#f4db29" d="M 625.78125 473.34375 L 625.78125 476 L 623.144531 476 L 623.144531 473.34375 L 625.78125 473.34375 " fill-opacity="1" fill-rule="nonzero"/><path fill="#f4db29" d="M 625.78125 470.6875 L 625.78125 473.34375 L 623.144531 473.34375 L 623.144531 470.6875 L 625.78125 470.6875 " fill-opacity="1" fill-rule="nonzero"/><path fill="#f4db29" d="M 625.78125 468.03125 L 625.78125 470.6875 L 623.144531 470.6875 L 623.144531 468.03125 L 625.78125 468.03125 " fill-opacity="1" fill-rule="nonzero"/><path fill="#f4db29" d="M 625.78125 465.375 L 625.78125 468.03125 L 623.144531 468.03125 L 623.144531 465.375 L 625.78125 465.375 " fill-opacity="1" fill-rule="nonzero"/><path fill="#fe9000" d="M 625.78125 462.71875 L 625.78125 465.375 L 623.144531 465.375 L 623.144531 462.71875 L 625.78125 462.71875 " fill-opacity="1" fill-rule="nonzero"/><path fill="#f4db29" d="M 625.78125 460.0625 L 625.78125 462.71875 L 623.144531 462.71875 L 623.144531 460.0625 L 625.78125 460.0625 " fill-opacity="1" fill-rule="nonzero"/><path fill="#fff9cf" d="M 625.78125 457.410156 L 625.78125 460.0625 L 623.144531 460.0625 L 623.144531 457.410156 L 625.78125 457.410156 " fill-opacity="1" fill-rule="nonzero"/><path fill="#fff9cf" d="M 625.78125 454.753906 L 625.78125 457.410156 L 623.144531 457.410156 L 623.144531 454.753906 L 625.78125 454.753906 " fill-opacity="1" fill-rule="nonzero"/><path fill="#fff9cf" d="M 625.78125 452.097656 L 625.78125 454.753906 L 623.144531 454.753906 L 623.144531 452.097656 L 625.78125 452.097656 " fill-opacity="1" fill-rule="nonzero"/><path fill="#f4db29" d="M 625.78125 449.441406 L 625.78125 452.097656 L 623.144531 452.097656 L 623.144531 449.441406 L 625.78125 449.441406 " fill-opacity="1" fill-rule="nonzero"/><path fill="#fe9000" d="M 625.78125 446.785156 L 625.78125 449.441406 L 623.144531 449.441406 L 623.144531 446.785156 L 625.78125 446.785156 " fill-opacity="1" fill-rule="nonzero"/><path fill="#f4db29" d="M 625.78125 444.128906 L 625.78125 446.785156 L 623.144531 446.785156 L 623.144531 444.128906 L 625.78125 444.128906 " fill-opacity="1" fill-rule="nonzero"/><path fill="#f4db29" d="M 625.78125 441.472656 L 625.78125 444.128906 L 623.144531 444.128906 L 623.144531 441.472656 L 625.78125 441.472656 " fill-opacity="1" fill-rule="nonzero"/><path fill="#f4db29" d="M 625.78125 438.820312 L 625.78125 441.472656 L 623.144531 441.472656 L 623.144531 438.820312 L 625.78125 438.820312 " fill-opacity="1" fill-rule="nonzero"/><path fill="#f4db29" d="M 625.78125 436.164062 L 625.78125 438.820312 L 623.144531 438.820312 L 623.144531 436.164062 L 625.78125 436.164062 " fill-opacity="1" fill-rule="nonzero"/><path fill="#fe9000" d="M 625.78125 433.507812 L 625.78125 436.164062 L 623.144531 436.164062 L 623.144531 433.507812 L 625.78125 433.507812 " fill-opacity="1" fill-rule="nonzero"/><path fill="#fff9cf" d="M 625.78125 428.195312 L 625.78125 430.851562 L 623.144531 430.851562 L 623.144531 428.195312 L 625.78125 428.195312 " fill-opacity="1" fill-rule="nonzero"/><g clip-path="url(#f0f4b92704)"><path fill="#f4db29" d="M 625.78125 425.539062 L 625.78125 428.195312 L 623.144531 428.195312 L 623.144531 425.539062 L 625.78125 425.539062 " fill-opacity="1" fill-rule="nonzero"/></g><path fill="#f4db29" d="M 623.144531 457.410156 L 623.144531 460.0625 L 620.503906 460.0625 L 620.503906 457.410156 L 623.144531 457.410156 " fill-opacity="1" fill-rule="nonzero"/><path fill="#fff9cf" d="M 623.144531 454.753906 L 623.144531 457.410156 L 620.503906 457.410156 L 620.503906 454.753906 L 623.144531 454.753906 " fill-opacity="1" fill-rule="nonzero"/><path fill="#f4db29" d="M 623.144531 452.097656 L 623.144531 454.753906 L 620.503906 454.753906 L 620.503906 452.097656 L 623.144531 452.097656 " fill-opacity="1" fill-rule="nonzero"/><path fill="#fe9000" d="M 620.503906 468.03125 L 620.503906 470.6875 L 617.867188 470.6875 L 617.867188 468.03125 L 620.503906 468.03125 " fill-opacity="1" fill-rule="nonzero"/><path fill="#fe9000" d="M 620.503906 460.0625 L 620.503906 462.71875 L 617.867188 462.71875 L 617.867188 460.0625 L 620.503906 460.0625 " fill-opacity="1" fill-rule="nonzero"/><path fill="#f4db29" d="M 620.503906 454.753906 L 620.503906 457.410156 L 617.867188 457.410156 L 617.867188 454.753906 L 620.503906 454.753906 " fill-opacity="1" fill-rule="nonzero"/><path fill="#fe9000" d="M 620.503906 449.441406 L 620.503906 452.097656 L 617.867188 452.097656 L 617.867188 449.441406 L 620.503906 449.441406 " fill-opacity="1" fill-rule="nonzero"/><path fill="#fe9000" d="M 620.503906 441.472656 L 620.503906 444.128906 L 617.867188 444.128906 L 617.867188 441.472656 L 620.503906 441.472656 " fill-opacity="1" fill-rule="nonzero"/><path fill="#fe9000" d="M 617.867188 454.753906 L 617.867188 457.410156 L 615.226562 457.410156 L 615.226562 454.753906 L 617.867188 454.753906 " fill-opacity="1" fill-rule="nonzero"/><path fill="#fff9cf" d="M 615.226562 465.375 L 615.226562 468.03125 L 612.589844 468.03125 L 612.589844 465.375 L 615.226562 465.375 " fill-opacity="1" fill-rule="nonzero"/><path fill="#f4db29" d="M 615.226562 454.753906 L 615.226562 457.410156 L 612.589844 457.410156 L 612.589844 454.753906 L 615.226562 454.753906 " fill-opacity="1" fill-rule="nonzero"/><path fill="#fff9cf" d="M 615.226562 444.128906 L 615.226562 446.785156 L 612.589844 446.785156 L 612.589844 444.128906 L 615.226562 444.128906 " fill-opacity="1" fill-rule="nonzero"/><path fill="#f4db29" d="M 612.589844 468.03125 L 612.589844 470.6875 L 609.953125 470.6875 L 609.953125 468.03125 L 612.589844 468.03125 " fill-opacity="1" fill-rule="nonzero"/><path fill="#fe9000" d="M 612.589844 460.0625 L 612.589844 462.71875 L 609.953125 462.71875 L 609.953125 460.0625 L 612.589844 460.0625 " fill-opacity="1" fill-rule="nonzero"/><path fill="#f4db29" d="M 612.589844 454.753906 L 612.589844 457.410156 L 609.953125 457.410156 L 609.953125 454.753906 L 612.589844 454.753906 " fill-opacity="1" fill-rule="nonzero"/><path fill="#fe9000" d="M 612.589844 449.441406 L 612.589844 452.097656 L 609.953125 452.097656 L 609.953125 449.441406 L 612.589844 449.441406 " fill-opacity="1" fill-rule="nonzero"/><path fill="#f4db29" d="M 612.589844 441.472656 L 612.589844 444.128906 L 609.953125 444.128906 L 609.953125 441.472656 L 612.589844 441.472656 " fill-opacity="1" fill-rule="nonzero"/><path fill="#f4db29" d="M 609.953125 454.753906 L 609.953125 457.410156 L 607.3125 457.410156 L 607.3125 454.753906 L 609.953125 454.753906 " fill-opacity="1" fill-rule="nonzero"/><path fill="#fe9000" d="M 607.3125 473.34375 L 607.3125 476 L 604.675781 476 L 604.675781 473.34375 L 607.3125 473.34375 " fill-opacity="1" fill-rule="nonzero"/><path fill="#f4db29" d="M 607.3125 454.753906 L 607.3125 457.410156 L 604.675781 457.410156 L 604.675781 454.753906 L 607.3125 454.753906 " fill-opacity="1" fill-rule="nonzero"/><path fill="#fe9000" d="M 607.3125 436.164062 L 607.3125 438.820312 L 604.675781 438.820312 L 604.675781 436.164062 L 607.3125 436.164062 " fill-opacity="1" fill-rule="nonzero"/><path fill="#fe9000" d="M 604.675781 454.753906 L 604.675781 457.410156 L 602.035156 457.410156 L 602.035156 454.753906 L 604.675781 454.753906 " fill-opacity="1" fill-rule="nonzero"/><path fill="#fff9cf" d="M 599.398438 454.753906 L 599.398438 457.410156 L 596.757812 457.410156 L 596.757812 454.753906 L 599.398438 454.753906 " fill-opacity="1" fill-rule="nonzero"/><g clip-path="url(#5fdf7207e6)"><path fill="#f4db29" d="M 596.757812 454.753906 L 596.757812 457.410156 L 594.121094 457.410156 L 594.121094 454.753906 L 596.757812 454.753906 " fill-opacity="1" fill-rule="nonzero"/></g><g clip-path="url(#0f264015f4)"><path fill="#f4db29" d="M 237.820312 114.554688 L 237.820312 118.28125 L 234.105469 118.28125 L 234.105469 114.554688 L 237.820312 114.554688 " fill-opacity="1" fill-rule="nonzero"/></g><path fill="#fff9cf" d="M 234.105469 114.554688 L 234.105469 118.28125 L 230.390625 118.28125 L 230.390625 114.554688 L 234.105469 114.554688 " fill-opacity="1" fill-rule="nonzero"/><path fill="#fe9000" d="M 226.679688 114.554688 L 226.679688 118.28125 L 222.964844 118.28125 L 222.964844 114.554688 L 226.679688 114.554688 " fill-opacity="1" fill-rule="nonzero"/><path fill="#fe9000" d="M 222.964844 140.640625 L 222.964844 144.367188 L 219.25 144.367188 L 219.25 140.640625 L 222.964844 140.640625 " fill-opacity="1" fill-rule="nonzero"/><path fill="#f4db29" d="M 222.964844 114.554688 L 222.964844 118.28125 L 219.25 118.28125 L 219.25 114.554688 L 222.964844 114.554688 " fill-opacity="1" fill-rule="nonzero"/><path fill="#fe9000" d="M 222.964844 88.46875 L 222.964844 92.195312 L 219.25 92.195312 L 219.25 88.46875 L 222.964844 88.46875 " fill-opacity="1" fill-rule="nonzero"/><path fill="#f4db29" d="M 219.25 114.554688 L 219.25 118.28125 L 215.539062 118.28125 L 215.539062 114.554688 L 219.25 114.554688 " fill-opacity="1" fill-rule="nonzero"/><path fill="#f4db29" d="M 215.539062 133.1875 L 215.539062 136.914062 L 211.824219 136.914062 L 211.824219 133.1875 L 215.539062 133.1875 " fill-opacity="1" fill-rule="nonzero"/><path fill="#fe9000" d="M 215.539062 122.007812 L 215.539062 125.734375 L 211.824219 125.734375 L 211.824219 122.007812 L 215.539062 122.007812 " fill-opacity="1" fill-rule="nonzero"/><path fill="#f4db29" d="M 215.539062 114.554688 L 215.539062 118.28125 L 211.824219 118.28125 L 211.824219 114.554688 L 215.539062 114.554688 " fill-opacity="1" fill-rule="nonzero"/><path fill="#fe9000" d="M 215.539062 107.101562 L 215.539062 110.828125 L 211.824219 110.828125 L 211.824219 107.101562 L 215.539062 107.101562 " fill-opacity="1" fill-rule="nonzero"/><path fill="#f4db29" d="M 215.539062 95.921875 L 215.539062 99.648438 L 211.824219 99.648438 L 211.824219 95.921875 L 215.539062 95.921875 " fill-opacity="1" fill-rule="nonzero"/><path fill="#fff9cf" d="M 211.824219 129.460938 L 211.824219 133.1875 L 208.109375 133.1875 L 208.109375 129.460938 L 211.824219 129.460938 " fill-opacity="1" fill-rule="nonzero"/><path fill="#f4db29" d="M 211.824219 114.554688 L 211.824219 118.28125 L 208.109375 118.28125 L 208.109375 114.554688 L 211.824219 114.554688 " fill-opacity="1" fill-rule="nonzero"/><path fill="#fff9cf" d="M 211.824219 99.648438 L 211.824219 103.375 L 208.109375 103.375 L 208.109375 99.648438 L 211.824219 99.648438 " fill-opacity="1" fill-rule="nonzero"/><path fill="#fe9000" d="M 208.109375 114.554688 L 208.109375 118.28125 L 204.398438 118.28125 L 204.398438 114.554688 L 208.109375 114.554688 " fill-opacity="1" fill-rule="nonzero"/><path fill="#fe9000" d="M 204.398438 133.1875 L 204.398438 136.914062 L 200.683594 136.914062 L 200.683594 133.1875 L 204.398438 133.1875 " fill-opacity="1" fill-rule="nonzero"/><path fill="#fe9000" d="M 204.398438 122.007812 L 204.398438 125.734375 L 200.683594 125.734375 L 200.683594 122.007812 L 204.398438 122.007812 " fill-opacity="1" fill-rule="nonzero"/><path fill="#f4db29" d="M 204.398438 114.554688 L 204.398438 118.28125 L 200.683594 118.28125 L 200.683594 114.554688 L 204.398438 114.554688 " fill-opacity="1" fill-rule="nonzero"/><path fill="#fe9000" d="M 204.398438 107.101562 L 204.398438 110.828125 L 200.683594 110.828125 L 200.683594 107.101562 L 204.398438 107.101562 " fill-opacity="1" fill-rule="nonzero"/><path fill="#fe9000" d="M 204.398438 95.921875 L 204.398438 99.648438 L 200.683594 99.648438 L 200.683594 95.921875 L 204.398438 95.921875 " fill-opacity="1" fill-rule="nonzero"/><path fill="#f4db29" d="M 200.683594 118.28125 L 200.683594 122.007812 L 196.96875 122.007812 L 196.96875 118.28125 L 200.683594 118.28125 " fill-opacity="1" fill-rule="nonzero"/><path fill="#fff9cf" d="M 200.683594 114.554688 L 200.683594 118.28125 L 196.96875 118.28125 L 196.96875 114.554688 L 200.683594 114.554688 " fill-opacity="1" fill-rule="nonzero"/><path fill="#f4db29" d="M 200.683594 110.828125 L 200.683594 114.554688 L 196.96875 114.554688 L 196.96875 110.828125 L 200.683594 110.828125 " fill-opacity="1" fill-rule="nonzero"/><g clip-path="url(#5976823232)"><path fill="#fe9000" d="M 196.96875 200.265625 L 196.96875 203.992188 L 193.257812 203.992188 L 193.257812 200.265625 L 196.96875 200.265625 " fill-opacity="1" fill-rule="nonzero"/></g><path fill="#fe9000" d="M 196.96875 192.8125 L 196.96875 196.539062 L 193.257812 196.539062 L 193.257812 192.8125 L 196.96875 192.8125 " fill-opacity="1" fill-rule="nonzero"/><path fill="#f4db29" d="M 196.96875 189.085938 L 196.96875 192.8125 L 193.257812 192.8125 L 193.257812 189.085938 L 196.96875 189.085938 " fill-opacity="1" fill-rule="nonzero"/><path fill="#fe9000" d="M 196.96875 181.632812 L 196.96875 185.359375 L 193.257812 185.359375 L 193.257812 181.632812 L 196.96875 181.632812 " fill-opacity="1" fill-rule="nonzero"/><path fill="#fe9000" d="M 196.96875 177.90625 L 196.96875 181.632812 L 193.257812 181.632812 L 193.257812 177.90625 L 196.96875 177.90625 " fill-opacity="1" fill-rule="nonzero"/><path fill="#f4db29" d="M 196.96875 174.179688 L 196.96875 177.90625 L 193.257812 177.90625 L 193.257812 174.179688 L 196.96875 174.179688 " fill-opacity="1" fill-rule="nonzero"/><path fill="#fe9000" d="M 196.96875 170.453125 L 196.96875 174.179688 L 193.257812 174.179688 L 193.257812 170.453125 L 196.96875 170.453125 " fill-opacity="1" fill-rule="nonzero"/><path fill="#f4db29" d="M 196.96875 166.726562 L 196.96875 170.453125 L 193.257812 170.453125 L 193.257812 166.726562 L 196.96875 166.726562 " fill-opacity="1" fill-rule="nonzero"/><path fill="#f4db29" d="M 196.96875 163 L 196.96875 166.726562 L 193.257812 166.726562 L 193.257812 163 L 196.96875 163 " fill-opacity="1" fill-rule="nonzero"/><path fill="#f4db29" d="M 196.96875 155.546875 L 196.96875 159.273438 L 193.257812 159.273438 L 193.257812 155.546875 L 196.96875 155.546875 " fill-opacity="1" fill-rule="nonzero"/><path fill="#fff9cf" d="M 196.96875 151.820312 L 196.96875 155.546875 L 193.257812 155.546875 L 193.257812 151.820312 L 196.96875 151.820312 " fill-opacity="1" fill-rule="nonzero"/><path fill="#fe9000" d="M 196.96875 144.367188 L 196.96875 148.09375 L 193.257812 148.09375 L 193.257812 144.367188 L 196.96875 144.367188 " fill-opacity="1" fill-rule="nonzero"/><path fill="#f4db29" d="M 196.96875 140.640625 L 196.96875 144.367188 L 193.257812 144.367188 L 193.257812 140.640625 L 196.96875 140.640625 " fill-opacity="1" fill-rule="nonzero"/><path fill="#f4db29" d="M 196.96875 136.914062 L 196.96875 140.640625 L 193.257812 140.640625 L 193.257812 136.914062 L 196.96875 136.914062 " fill-opacity="1" fill-rule="nonzero"/><path fill="#f4db29" d="M 196.96875 133.1875 L 196.96875 136.914062 L 193.257812 136.914062 L 193.257812 133.1875 L 196.96875 133.1875 " fill-opacity="1" fill-rule="nonzero"/><path fill="#f4db29" d="M 196.96875 129.460938 L 196.96875 133.1875 L 193.257812 133.1875 L 193.257812 129.460938 L 196.96875 129.460938 " fill-opacity="1" fill-rule="nonzero"/><path fill="#fe9000" d="M 196.96875 125.734375 L 196.96875 129.460938 L 193.257812 129.460938 L 193.257812 125.734375 L 196.96875 125.734375 " fill-opacity="1" fill-rule="nonzero"/><path fill="#f4db29" d="M 196.96875 122.007812 L 196.96875 125.734375 L 193.257812 125.734375 L 193.257812 122.007812 L 196.96875 122.007812 " fill-opacity="1" fill-rule="nonzero"/><path fill="#fff9cf" d="M 196.96875 118.28125 L 196.96875 122.007812 L 193.257812 122.007812 L 193.257812 118.28125 L 196.96875 118.28125 " fill-opacity="1" fill-rule="nonzero"/><path fill="#fff9cf" d="M 196.96875 114.554688 L 196.96875 118.28125 L 193.257812 118.28125 L 193.257812 114.554688 L 196.96875 114.554688 " fill-opacity="1" fill-rule="nonzero"/><path fill="#fff9cf" d="M 196.96875 110.828125 L 196.96875 114.554688 L 193.257812 114.554688 L 193.257812 110.828125 L 196.96875 110.828125 " fill-opacity="1" fill-rule="nonzero"/><path fill="#f4db29" d="M 196.96875 107.101562 L 196.96875 110.828125 L 193.257812 110.828125 L 193.257812 107.101562 L 196.96875 107.101562 " fill-opacity="1" fill-rule="nonzero"/><path fill="#fe9000" d="M 196.96875 103.375 L 196.96875 107.101562 L 193.257812 107.101562 L 193.257812 103.375 L 196.96875 103.375 " fill-opacity="1" fill-rule="nonzero"/><path fill="#f4db29" d="M 196.96875 99.648438 L 196.96875 103.375 L 193.257812 103.375 L 193.257812 99.648438 L 196.96875 99.648438 " fill-opacity="1" fill-rule="nonzero"/><path fill="#f4db29" d="M 196.96875 95.921875 L 196.96875 99.648438 L 193.257812 99.648438 L 193.257812 95.921875 L 196.96875 95.921875 " fill-opacity="1" fill-rule="nonzero"/><path fill="#f4db29" d="M 196.96875 92.195312 L 196.96875 95.921875 L 193.257812 95.921875 L 193.257812 92.195312 L 196.96875 92.195312 " fill-opacity="1" fill-rule="nonzero"/><path fill="#f4db29" d="M 196.96875 88.46875 L 196.96875 92.195312 L 193.257812 92.195312 L 193.257812 88.46875 L 196.96875 88.46875 " fill-opacity="1" fill-rule="nonzero"/><path fill="#fe9000" d="M 196.96875 84.742188 L 196.96875 88.46875 L 193.257812 88.46875 L 193.257812 84.742188 L 196.96875 84.742188 " fill-opacity="1" fill-rule="nonzero"/><path fill="#fff9cf" d="M 196.96875 77.289062 L 196.96875 81.015625 L 193.257812 81.015625 L 193.257812 77.289062 L 196.96875 77.289062 " fill-opacity="1" fill-rule="nonzero"/><g clip-path="url(#6f9dbf249d)"><path fill="#f4db29" d="M 196.96875 73.5625 L 196.96875 77.289062 L 193.257812 77.289062 L 193.257812 73.5625 L 196.96875 73.5625 " fill-opacity="1" fill-rule="nonzero"/></g><path fill="#f4db29" d="M 193.257812 118.28125 L 193.257812 122.007812 L 189.542969 122.007812 L 189.542969 118.28125 L 193.257812 118.28125 " fill-opacity="1" fill-rule="nonzero"/><path fill="#fff9cf" d="M 193.257812 114.554688 L 193.257812 118.28125 L 189.542969 118.28125 L 189.542969 114.554688 L 193.257812 114.554688 " fill-opacity="1" fill-rule="nonzero"/><path fill="#f4db29" d="M 193.257812 110.828125 L 193.257812 114.554688 L 189.542969 114.554688 L 189.542969 110.828125 L 193.257812 110.828125 " fill-opacity="1" fill-rule="nonzero"/><path fill="#fe9000" d="M 189.542969 133.1875 L 189.542969 136.914062 L 185.828125 136.914062 L 185.828125 133.1875 L 189.542969 133.1875 " fill-opacity="1" fill-rule="nonzero"/><path fill="#fe9000" d="M 189.542969 122.007812 L 189.542969 125.734375 L 185.828125 125.734375 L 185.828125 122.007812 L 189.542969 122.007812 " fill-opacity="1" fill-rule="nonzero"/><path fill="#f4db29" d="M 189.542969 114.554688 L 189.542969 118.28125 L 185.828125 118.28125 L 185.828125 114.554688 L 189.542969 114.554688 " fill-opacity="1" fill-rule="nonzero"/><path fill="#fe9000" d="M 189.542969 107.101562 L 189.542969 110.828125 L 185.828125 110.828125 L 185.828125 107.101562 L 189.542969 107.101562 " fill-opacity="1" fill-rule="nonzero"/><path fill="#fe9000" d="M 189.542969 95.921875 L 189.542969 99.648438 L 185.828125 99.648438 L 185.828125 95.921875 L 189.542969 95.921875 " fill-opacity="1" fill-rule="nonzero"/><path fill="#fe9000" d="M 185.828125 114.554688 L 185.828125 118.28125 L 182.117188 118.28125 L 182.117188 114.554688 L 185.828125 114.554688 " fill-opacity="1" fill-rule="nonzero"/><path fill="#fff9cf" d="M 182.117188 129.460938 L 182.117188 133.1875 L 178.402344 133.1875 L 178.402344 129.460938 L 182.117188 129.460938 " fill-opacity="1" fill-rule="nonzero"/><path fill="#f4db29" d="M 182.117188 114.554688 L 182.117188 118.28125 L 178.402344 118.28125 L 178.402344 114.554688 L 182.117188 114.554688 " fill-opacity="1" fill-rule="nonzero"/><path fill="#fff9cf" d="M 182.117188 99.648438 L 182.117188 103.375 L 178.402344 103.375 L 178.402344 99.648438 L 182.117188 99.648438 " fill-opacity="1" fill-rule="nonzero"/><path fill="#f4db29" d="M 178.402344 133.1875 L 178.402344 136.914062 L 174.6875 136.914062 L 174.6875 133.1875 L 178.402344 133.1875 " fill-opacity="1" fill-rule="nonzero"/><path fill="#fe9000" d="M 178.402344 122.007812 L 178.402344 125.734375 L 174.6875 125.734375 L 174.6875 122.007812 L 178.402344 122.007812 " fill-opacity="1" fill-rule="nonzero"/><path fill="#f4db29" d="M 178.402344 114.554688 L 178.402344 118.28125 L 174.6875 118.28125 L 174.6875 114.554688 L 178.402344 114.554688 " fill-opacity="1" fill-rule="nonzero"/><path fill="#fe9000" d="M 178.402344 107.101562 L 178.402344 110.828125 L 174.6875 110.828125 L 174.6875 107.101562 L 178.402344 107.101562 " fill-opacity="1" fill-rule="nonzero"/><path fill="#f4db29" d="M 178.402344 95.921875 L 178.402344 99.648438 L 174.6875 99.648438 L 174.6875 95.921875 L 178.402344 95.921875 " fill-opacity="1" fill-rule="nonzero"/><path fill="#f4db29" d="M 174.6875 114.554688 L 174.6875 118.28125 L 170.972656 118.28125 L 170.972656 114.554688 L 174.6875 114.554688 " fill-opacity="1" fill-rule="nonzero"/><path fill="#fe9000" d="M 170.972656 140.640625 L 170.972656 144.367188 L 167.261719 144.367188 L 167.261719 140.640625 L 170.972656 140.640625 " fill-opacity="1" fill-rule="nonzero"/><path fill="#f4db29" d="M 170.972656 114.554688 L 170.972656 118.28125 L 167.261719 118.28125 L 167.261719 114.554688 L 170.972656 114.554688 " fill-opacity="1" fill-rule="nonzero"/><path fill="#fe9000" d="M 170.972656 88.46875 L 170.972656 92.195312 L 167.261719 92.195312 L 167.261719 88.46875 L 170.972656 88.46875 " fill-opacity="1" fill-rule="nonzero"/><path fill="#fe9000" d="M 167.261719 114.554688 L 167.261719 118.28125 L 163.546875 118.28125 L 163.546875 114.554688 L 167.261719 114.554688 " fill-opacity="1" fill-rule="nonzero"/><path fill="#fff9cf" d="M 159.832031 114.554688 L 159.832031 118.28125 L 156.121094 118.28125 L 156.121094 114.554688 L 159.832031 114.554688 " fill-opacity="1" fill-rule="nonzero"/><g clip-path="url(#a7052d9449)"><path fill="#f4db29" d="M 156.121094 114.554688 L 156.121094 118.28125 L 152.40625 118.28125 L 152.40625 114.554688 L 156.121094 114.554688 " fill-opacity="1" fill-rule="nonzero"/></g></svg>